<svg width="20" height="21" viewBox="0 0 20 21" fill="none" xmlns="http://www.w3.org/2000/svg">
<path d="M13.3332 17.6041V15.9375C13.3332 15.0534 12.982 14.2056 12.3569 13.5804C11.7317 12.9553 10.8839 12.6041 9.99984 12.6041H4.99984C4.11578 12.6041 3.26794 12.9553 2.64281 13.5804C2.01769 14.2056 1.6665 15.0534 1.6665 15.9375V17.6041" stroke="#525252" stroke-width="1.33" stroke-linecap="round" stroke-linejoin="round"/>
<path d="M7.49984 9.27079C9.34079 9.27079 10.8332 7.77841 10.8332 5.93746C10.8332 4.09651 9.34079 2.60413 7.49984 2.60413C5.65889 2.60413 4.1665 4.09651 4.1665 5.93746C4.1665 7.77841 5.65889 9.27079 7.49984 9.27079Z" stroke="#525252" stroke-width="1.33" stroke-linecap="round" stroke-linejoin="round"/>
<path d="M15.8332 10.9375C16.7536 10.9375 17.4998 10.1913 17.4998 9.27079C17.4998 8.35032 16.7536 7.60413 15.8332 7.60413C14.9127 7.60413 14.1665 8.35032 14.1665 9.27079C14.1665 10.1913 14.9127 10.9375 15.8332 10.9375Z" stroke="#525252" stroke-linecap="round" stroke-linejoin="round"/>
<path d="M15.8335 6.77075V7.60409" stroke="#525252" stroke-linecap="round" stroke-linejoin="round"/>
<path d="M15.8335 10.9375V11.7708" stroke="#525252" stroke-linecap="round" stroke-linejoin="round"/>
<path d="M17.9999 8.02075L17.2749 8.43742" stroke="#525252" stroke-linecap="round" stroke-linejoin="round"/>
<path d="M14.3915 10.1041L13.6665 10.5208" stroke="#525252" stroke-linecap="round" stroke-linejoin="round"/>
<path d="M17.9999 10.5208L17.2749 10.1041" stroke="#525252" stroke-linecap="round" stroke-linejoin="round"/>
<path d="M14.3915 8.43742L13.6665 8.02075" stroke="#525252" stroke-linecap="round" stroke-linejoin="round"/>
</svg>
