<svg width="18" height="13" viewBox="0 0 18 13" fill="none" xmlns="http://www.w3.org/2000/svg">
<path d="M6.1875 0.25C5.60805 0.252304 5.05299 0.483512 4.64325 0.893249C4.23351 1.30299 4.0023 1.85805 4 2.4375C4 3.63875 4.98625 4.625 6.1875 4.625C7.38875 4.625 8.375 3.63875 8.375 2.4375C8.375 1.23625 7.38875 0.25 6.1875 0.25ZM11.8125 0.25C11.233 0.252304 10.678 0.483512 10.2682 0.893249C9.85851 1.30299 9.6273 1.85805 9.625 2.4375C9.625 3.63875 10.6112 4.625 11.8125 4.625C13.0138 4.625 14 3.63875 14 2.4375C14 1.23625 13.0138 0.25 11.8125 0.25ZM6.1875 1.5C6.7125 1.5 7.125 1.9125 7.125 2.4375C7.125 2.9625 6.7125 3.375 6.1875 3.375C5.6625 3.375 5.25 2.9625 5.25 2.4375C5.25 1.9125 5.6625 1.5 6.1875 1.5ZM11.8125 1.5C12.3375 1.5 12.75 1.9125 12.75 2.4375C12.75 2.9625 12.3375 3.375 11.8125 3.375C11.2875 3.375 10.875 2.9625 10.875 2.4375C10.875 1.9125 11.2875 1.5 11.8125 1.5ZM3.375 4C2 4 0.875 5.125 0.875 6.5C0.875 7.19562 1.17312 7.82312 1.63687 8.2775C1.21161 8.56474 0.862955 8.95153 0.621247 9.40422C0.379539 9.85692 0.252095 10.3618 0.25 10.875H1.5C1.5 9.8325 2.3325 9 3.375 9C4.4175 9 5.25 9.8325 5.25 10.875H6.5C6.4979 10.3618 6.37046 9.85692 6.12875 9.40422C5.88705 8.95153 5.53839 8.56474 5.11312 8.2775C5.57688 7.82312 5.875 7.19625 5.875 6.5C5.875 5.125 4.75 4 3.375 4ZM6.5 10.875C6.10938 11.3975 5.875 12.0544 5.875 12.75H7.125C7.125 11.7075 7.9575 10.875 9 10.875C10.0425 10.875 10.875 11.7075 10.875 12.75H12.125C12.1241 12.074 11.9049 11.4163 11.5 10.875C11.2875 10.5919 11.0312 10.35 10.7381 10.1525C11.2019 9.69812 11.5 9.07125 11.5 8.375C11.5 7 10.375 5.875 9 5.875C7.625 5.875 6.5 7 6.5 8.375C6.5 9.07063 6.79812 9.69812 7.26188 10.1525C6.96899 10.3486 6.71139 10.5929 6.5 10.875ZM11.5 10.875H12.75C12.75 9.8325 13.5825 9 14.625 9C15.6675 9 16.5 9.8325 16.5 10.875H17.75C17.7479 10.3618 17.6205 9.85692 17.3788 9.40422C17.137 8.95153 16.7884 8.56474 16.3631 8.2775C16.8269 7.82312 17.125 7.19625 17.125 6.5C17.125 5.125 16 4 14.625 4C13.25 4 12.125 5.125 12.125 6.5C12.125 7.19562 12.4231 7.82312 12.8869 8.2775C12.4616 8.56474 12.113 8.95153 11.8712 9.40422C11.6295 9.85692 11.5021 10.3618 11.5 10.875ZM3.375 5.25C4.07312 5.25 4.625 5.80188 4.625 6.5C4.625 7.19812 4.07312 7.75 3.375 7.75C2.67688 7.75 2.125 7.19812 2.125 6.5C2.125 5.80188 2.67688 5.25 3.375 5.25ZM14.625 5.25C15.3231 5.25 15.875 5.80188 15.875 6.5C15.875 7.19812 15.3231 7.75 14.625 7.75C13.9269 7.75 13.375 7.19812 13.375 6.5C13.375 5.80188 13.9269 5.25 14.625 5.25ZM9 7.125C9.69812 7.125 10.25 7.67688 10.25 8.375C10.25 9.07312 9.69812 9.625 9 9.625C8.30188 9.625 7.75 9.07312 7.75 8.375C7.75 7.67688 8.30188 7.125 9 7.125Z" fill="#0F172A"/>
</svg>
