<svg width="20" height="21" viewBox="0 0 20 21" fill="none" xmlns="http://www.w3.org/2000/svg">
<path d="M10 1.35413C9.22504 1.35335 8.47742 1.64055 7.9023 2.15999C7.32717 2.67942 6.96557 3.39402 6.88769 4.16507C6.8098 4.93611 7.0212 5.70859 7.48083 6.33255C7.94046 6.9565 8.61554 7.38741 9.37501 7.54163V8.85413H6.70876C5.76501 8.85413 5.00001 9.61913 5.00001 10.5629V12.6666C4.24123 12.8215 3.56699 13.2526 3.10801 13.8764C2.64903 14.5001 2.438 15.2721 2.51583 16.0426C2.59367 16.8131 2.95483 17.5272 3.52929 18.0466C4.10375 18.5659 4.85058 18.8535 5.62501 18.8535C6.39943 18.8535 7.14627 18.5659 7.72073 18.0466C8.29519 17.5272 8.65635 16.8131 8.73418 16.0426C8.81202 15.2721 8.60099 14.5001 8.14201 13.8764C7.68302 13.2526 7.00878 12.8215 6.25001 12.6666V10.5629C6.25001 10.3091 6.45501 10.1041 6.70876 10.1041H13.2925C13.545 10.1041 13.75 10.3091 13.75 10.5629V12.6666C12.9912 12.8215 12.317 13.2526 11.858 13.8764C11.399 14.5001 11.188 15.2721 11.2658 16.0426C11.3437 16.8131 11.7048 17.5272 12.2793 18.0466C12.8537 18.5659 13.6006 18.8535 14.375 18.8535C15.1494 18.8535 15.8963 18.5659 16.4707 18.0466C17.0452 17.5272 17.4063 16.8131 17.4842 16.0426C17.562 15.2721 17.351 14.5001 16.892 13.8764C16.433 13.2526 15.7588 12.8215 15 12.6666V10.5629C15 9.61913 14.235 8.85413 13.2925 8.85413H10.6238V7.54163C11.3831 7.38743 12.0581 6.95662 12.5177 6.3328C12.9774 5.70898 13.1889 4.93664 13.1111 4.16569C13.0334 3.39474 12.672 2.68015 12.0972 2.16062C11.5223 1.64108 10.7749 1.35366 10 1.35413ZM8.12501 4.47913C8.12501 3.98185 8.32255 3.50493 8.67418 3.1533C9.02581 2.80167 9.50273 2.60413 10 2.60413C10.4973 2.60413 10.9742 2.80167 11.3258 3.1533C11.6775 3.50493 11.875 3.98185 11.875 4.47913C11.875 4.97641 11.6775 5.45332 11.3258 5.80495C10.9742 6.15658 10.4973 6.35413 10 6.35413C9.50273 6.35413 9.02581 6.15658 8.67418 5.80495C8.32255 5.45332 8.12501 4.97641 8.12501 4.47913ZM3.75001 15.7291C3.75001 15.2318 3.94755 14.7549 4.29918 14.4033C4.65081 14.0517 5.12773 13.8541 5.62501 13.8541C6.12229 13.8541 6.5992 14.0517 6.95083 14.4033C7.30246 14.7549 7.50001 15.2318 7.50001 15.7291C7.50001 16.2264 7.30246 16.7033 6.95083 17.055C6.5992 17.4066 6.12229 17.6041 5.62501 17.6041C5.12773 17.6041 4.65081 17.4066 4.29918 17.055C3.94755 16.7033 3.75001 16.2264 3.75001 15.7291ZM14.375 13.8541C14.6212 13.8541 14.8651 13.9026 15.0925 13.9969C15.32 14.0911 15.5267 14.2292 15.7008 14.4033C15.8749 14.5774 16.0131 14.7841 16.1073 15.0116C16.2015 15.2391 16.25 15.4829 16.25 15.7291C16.25 15.9754 16.2015 16.2192 16.1073 16.4467C16.0131 16.6741 15.8749 16.8808 15.7008 17.055C15.5267 17.2291 15.32 17.3672 15.0925 17.4614C14.8651 17.5556 14.6212 17.6041 14.375 17.6041C13.8777 17.6041 13.4008 17.4066 13.0492 17.055C12.6976 16.7033 12.5 16.2264 12.5 15.7291C12.5 15.2318 12.6976 14.7549 13.0492 14.4033C13.4008 14.0517 13.8777 13.8541 14.375 13.8541Z" fill="#525252"/>
</svg>
