<svg viewBox="0 0 419 416" fill="none" xmlns="http://www.w3.org/2000/svg">
<path d="M337.742 147.705C358.218 147.705 374.817 131.106 374.817 110.63C374.817 90.1537 358.218 73.5547 337.742 73.5547C317.266 73.5547 300.667 90.1537 300.667 110.63C300.667 131.106 317.266 147.705 337.742 147.705Z" fill="#F4E8D8"/>
<path d="M144.076 305.112C192.477 305.112 231.713 265.875 231.713 217.475C231.713 169.074 192.477 129.838 144.076 129.838C95.6759 129.838 56.4395 169.074 56.4395 217.475C56.4395 265.875 95.6759 305.112 144.076 305.112Z" fill="#F4E8D8"/>
<path d="M217.126 415.024C328.17 415.024 418.188 409.161 418.188 401.928C418.188 394.695 328.17 388.832 217.126 388.832C106.083 388.832 16.0645 394.695 16.0645 401.928C16.0645 409.161 106.083 415.024 217.126 415.024Z" fill="#C9B5A9"/>
<path d="M125.406 8.84946L129.75 10.2585L125.406 11.6665C123.635 12.2405 122.247 13.6285 121.673 15.3995L120.264 19.7435L118.855 15.3995C118.281 13.6285 116.893 12.2405 115.122 11.6665L110.778 10.2585L115.122 8.84946C116.893 8.27546 118.281 6.88746 118.855 5.11646L120.264 0.772461L121.673 5.11646C122.247 6.88746 123.635 8.27546 125.406 8.84946Z" fill="white"/>
<path d="M391.788 290.466L396.132 291.875L391.788 293.284C390.017 293.858 388.629 295.246 388.055 297.017L386.647 301.361L385.238 297.017C384.664 295.246 383.276 293.858 381.505 293.284L377.161 291.875L381.505 290.466C383.276 289.892 384.664 288.504 385.238 286.733L386.647 282.389L388.055 286.733C388.629 288.503 390.017 289.891 391.788 290.466Z" fill="white"/>
<path d="M14.9727 253.155L19.3167 254.564L14.9727 255.973C13.2017 256.547 11.8137 257.935 11.2397 259.706L9.8307 264.05L8.4227 259.706C7.8487 257.935 6.4607 256.547 4.6897 255.973L0.345703 254.564L4.6897 253.155C6.4607 252.581 7.8487 251.193 8.4227 249.422L9.8307 245.078L11.2397 249.422C11.8137 251.193 13.2017 252.581 14.9727 253.155Z" fill="white"/>
<path d="M210.093 121.024L212.615 121.842L210.093 122.66C209.065 122.993 208.259 123.799 207.925 124.827L207.107 127.349L206.289 124.827C205.956 123.799 205.149 122.993 204.121 122.66L201.599 121.842L204.121 121.024C205.149 120.691 205.955 119.885 206.289 118.856L207.107 116.334L207.925 118.856C208.259 119.885 209.065 120.691 210.093 121.024Z" fill="white"/>
<path d="M56.0868 66.7427L58.6088 67.5607L56.0868 68.3787C55.0588 68.7117 54.2528 69.5177 53.9188 70.5457L53.1008 73.0677L52.2828 70.5457C51.9498 69.5177 51.1438 68.7117 50.1148 68.3787L47.5928 67.5607L50.1148 66.7427C51.1428 66.4097 51.9488 65.6037 52.2828 64.5747L53.1008 62.0527L53.9188 64.5747C54.2528 65.6027 55.0588 66.4087 56.0868 66.7427Z" fill="white"/>
<path d="M24.3641 231.2L26.8861 232.018L24.3641 232.836C23.3361 233.169 22.5301 233.975 22.1961 235.004L21.3781 237.526L20.5601 235.004C20.2271 233.976 19.4211 233.17 18.3921 232.836L15.8701 232.018L18.3921 231.2C19.4201 230.867 20.2261 230.061 20.5601 229.032L21.3781 226.51L22.1961 229.032C22.5301 230.06 23.3361 230.866 24.3641 231.2Z" fill="white"/>
<path d="M350.561 294.737C350.561 294.737 341.73 295.703 338.281 297.634C334.832 299.566 333.176 306.051 339.247 306.051C345.318 306.051 354.976 306.051 359.116 306.051C363.256 306.051 361.6 296.806 359.392 294.323L350.561 294.737Z" fill="#2E344B"/>
<path d="M346.516 280.774C346.516 280.774 348.763 292.834 349.387 294.812C350.344 297.843 358.839 297.685 359.596 294.334C360.713 289.389 360.713 279.339 360.713 279.339L346.516 280.774Z" fill="#D8877B"/>
<path d="M344.96 297.886C344.767 297.537 344.517 297.207 344.224 296.936C343.918 296.653 343.578 296.402 343.228 296.177C342.86 295.94 342.433 295.649 341.978 295.679C341.681 295.699 341.369 295.989 341.493 296.316C341.545 296.454 341.597 296.582 341.695 296.695C341.753 296.763 341.82 296.827 341.884 296.89C341.944 296.949 342.013 296.998 342.08 297.05C342.091 297.058 342.115 297.075 342.132 297.086C342.123 297.08 342.117 297.076 342.096 297.062C342.171 297.112 342.24 297.176 342.31 297.233C342.585 297.46 342.849 297.702 343.083 297.971C343.133 298.028 343.177 298.089 343.228 298.146C343.055 297.954 343.27 298.203 343.302 298.243C343.387 298.378 343.487 298.503 343.565 298.644C343.606 298.717 343.642 298.791 343.678 298.867C343.688 298.887 343.691 298.894 343.694 298.898C343.721 298.964 343.746 299.03 343.78 299.093C343.814 299.157 343.848 299.222 343.883 299.285C343.969 299.441 344.102 299.537 344.247 299.629C344.552 299.82 344.935 299.68 345.122 299.4C345.435 298.927 345.208 298.334 344.96 297.886Z" fill="white"/>
<path d="M348.457 297.555C348.389 297.334 348.306 297.114 348.19 296.913C347.987 296.562 347.735 296.231 347.455 295.937C346.894 295.349 346.137 294.824 345.311 294.745C345.097 294.724 344.885 294.9 344.808 295.083C344.73 295.267 344.752 295.549 344.922 295.684C345.077 295.807 345.233 295.92 345.397 296.03C345.434 296.055 345.471 296.081 345.508 296.107C345.513 296.111 345.52 296.114 345.526 296.117C345.583 296.147 345.639 296.211 345.687 296.252C345.942 296.467 346.173 296.693 346.384 296.95C346.407 296.982 346.43 297.014 346.453 297.047C346.499 297.114 346.544 297.183 346.586 297.253C346.671 297.393 346.749 297.539 346.818 297.688C346.887 297.837 346.958 297.984 347.028 298.132C347.038 298.154 347.038 298.153 347.036 298.148C347.048 298.176 347.06 298.205 347.072 298.233C347.115 298.312 347.18 298.389 347.245 298.45C347.302 298.503 347.364 298.553 347.421 298.606C347.755 298.919 348.273 298.774 348.413 298.344C348.5 298.08 348.543 297.832 348.457 297.555Z" fill="white"/>
<path d="M358.08 299.927C357.988 299.6 357.823 299.316 357.583 299.075C357.453 298.974 357.323 298.874 357.192 298.773C356.891 298.598 356.566 298.51 356.217 298.509C355.951 298.499 355.703 298.554 355.473 298.675C355.234 298.753 355.027 298.886 354.852 299.074C354.664 299.249 354.531 299.456 354.453 299.695C354.332 299.925 354.277 300.173 354.287 300.439C354.31 300.61 354.333 300.781 354.356 300.952C354.448 301.279 354.613 301.563 354.852 301.804C354.982 301.905 355.113 302.005 355.243 302.106C355.544 302.281 355.869 302.368 356.217 302.369C356.483 302.379 356.731 302.324 356.961 302.203C357.2 302.125 357.408 301.992 357.582 301.804C357.77 301.629 357.903 301.422 357.981 301.183C358.102 300.953 358.157 300.705 358.147 300.439C358.125 300.269 358.103 300.098 358.08 299.927Z" fill="white"/>
<path d="M346.941 283.03C348.912 283.908 353.99 285.571 360.561 285.231C360.712 281.986 360.712 279.339 360.712 279.339L346.515 280.775C346.515 280.775 346.684 281.679 346.941 283.03Z" fill="#B44E50"/>
<path d="M315.786 294.737C315.786 294.737 306.955 295.703 303.506 297.634C300.057 299.566 298.401 306.051 304.472 306.051C310.543 306.051 320.202 306.051 324.341 306.051C328.48 306.051 326.825 296.806 324.617 294.323L315.786 294.737Z" fill="#2E344B"/>
<path d="M311.739 280.774C311.739 280.774 313.986 292.834 314.61 294.812C315.567 297.843 324.062 297.685 324.819 294.334C325.936 289.389 325.936 279.339 325.936 279.339L311.739 280.774Z" fill="#D8877B"/>
<path d="M310.184 297.886C309.991 297.537 309.741 297.207 309.448 296.936C309.142 296.653 308.802 296.402 308.452 296.177C308.084 295.94 307.657 295.649 307.201 295.679C306.904 295.699 306.593 295.989 306.716 296.316C306.768 296.454 306.82 296.582 306.918 296.695C306.976 296.763 307.044 296.827 307.107 296.89C307.167 296.949 307.236 296.998 307.303 297.05C307.314 297.058 307.338 297.075 307.355 297.086C307.347 297.08 307.34 297.076 307.319 297.062C307.394 297.112 307.463 297.176 307.533 297.233C307.809 297.46 308.072 297.702 308.306 297.971C308.356 298.028 308.4 298.089 308.451 298.146C308.278 297.954 308.493 298.203 308.525 298.243C308.61 298.378 308.709 298.503 308.788 298.644C308.829 298.717 308.865 298.791 308.901 298.867C308.911 298.887 308.914 298.894 308.917 298.898C308.944 298.964 308.969 299.03 309.002 299.093C309.037 299.157 309.07 299.222 309.105 299.285C309.191 299.441 309.324 299.537 309.469 299.629C309.774 299.82 310.157 299.68 310.344 299.4C310.659 298.927 310.433 298.334 310.184 297.886Z" fill="white"/>
<path d="M313.681 297.555C313.613 297.334 313.53 297.114 313.415 296.913C313.212 296.562 312.96 296.231 312.68 295.937C312.119 295.349 311.362 294.824 310.536 294.745C310.322 294.724 310.11 294.9 310.033 295.083C309.955 295.267 309.977 295.549 310.147 295.684C310.302 295.807 310.458 295.92 310.622 296.03C310.659 296.055 310.696 296.081 310.733 296.107C310.738 296.111 310.745 296.114 310.751 296.117C310.808 296.147 310.864 296.211 310.912 296.252C311.167 296.467 311.398 296.693 311.609 296.95C311.632 296.982 311.655 297.014 311.678 297.047C311.725 297.114 311.769 297.183 311.811 297.253C311.896 297.393 311.974 297.539 312.043 297.688C312.111 297.837 312.183 297.984 312.253 298.132C312.263 298.154 312.263 298.153 312.261 298.148C312.273 298.176 312.285 298.205 312.297 298.233C312.34 298.312 312.405 298.389 312.47 298.45C312.527 298.503 312.589 298.553 312.646 298.606C312.98 298.919 313.498 298.774 313.638 298.344C313.724 298.08 313.766 297.832 313.681 297.555Z" fill="white"/>
<path d="M323.305 299.927C323.213 299.6 323.048 299.316 322.808 299.075C322.678 298.974 322.548 298.874 322.417 298.773C322.116 298.598 321.791 298.51 321.443 298.509C321.177 298.499 320.929 298.554 320.699 298.675C320.46 298.753 320.253 298.886 320.078 299.074C319.89 299.249 319.757 299.456 319.679 299.695C319.558 299.925 319.503 300.173 319.513 300.439C319.536 300.61 319.559 300.781 319.582 300.952C319.674 301.279 319.839 301.563 320.078 301.804C320.208 301.905 320.338 302.005 320.469 302.106C320.77 302.281 321.095 302.368 321.443 302.369C321.709 302.379 321.957 302.324 322.187 302.203C322.426 302.125 322.633 301.992 322.808 301.804C322.996 301.629 323.129 301.422 323.207 301.183C323.328 300.953 323.383 300.705 323.373 300.439C323.351 300.269 323.328 300.098 323.305 299.927Z" fill="white"/>
<path d="M312.165 283.03C314.136 283.908 319.214 285.571 325.785 285.231C325.936 281.986 325.936 279.339 325.936 279.339L311.739 280.775C311.739 280.775 311.908 281.679 312.165 283.03Z" fill="#B44E50"/>
<path d="M354.97 184.742C356.087 188.411 359.596 197.982 359.915 209.149C360.234 220.316 361.51 274.074 361.989 282.369H344.92C344.92 282.369 333.594 241.213 332.956 210.106C332.956 210.106 328.848 234.974 327.373 245.839C325.618 258.76 328.011 282.529 328.011 282.529H309.826C309.826 282.529 303.924 242.968 306.636 222.23C309.348 201.492 313.974 183.307 313.974 183.307L354.97 184.742Z" fill="#4F6E59"/>
<path d="M356.242 188.776C355.721 187.08 355.262 185.703 354.969 184.741L334.42 184.021L330.403 185.219L330.483 189.287C330.483 189.287 342.605 192.749 356.242 188.776Z" fill="#2E344B"/>
<path d="M303.524 147.912C303.524 147.912 308.669 150.424 314.112 150.006C319.556 149.587 313.753 145.819 313.753 145.819L303.524 147.912Z" fill="#2E344B"/>
<path d="M315.808 148.372C316.228 148.256 314.292 155.63 312.618 159.219C311.575 161.454 303.525 172.06 303.525 172.06L296.426 167.753C296.426 167.753 303.525 155.749 304.123 154.313C304.721 152.877 306.157 142.469 306.157 142.469L313.575 141.392L315.808 148.372Z" fill="#D8877B"/>
<path d="M306.157 142.469C306.157 142.469 305.76 145.345 305.297 148.282C306.68 148.576 312.092 149.801 315.23 151.559C315.726 149.696 315.991 148.321 315.808 148.372L313.88 142.346L311.937 141.631L306.157 142.469Z" fill="#B44E50"/>
<path d="M343.544 121.465C349.226 122.25 353.773 124.044 356.405 126.796C359.037 129.548 359.755 155.151 358.559 158.62L357.203 157.862L354.132 160.773C354.132 160.773 354.012 176.326 356.525 185.06C356.525 185.06 336.665 194.153 312.976 183.385C312.976 183.385 317.642 175.369 316.326 161.85C316.117 159.703 313.814 154.073 313.933 148.69C313.933 148.69 306.994 147.374 303.524 147.912C303.524 147.912 306.635 131.82 309.506 128.112C312.377 124.403 318.718 122.489 321.111 121.891C323.504 121.293 327.93 122.728 327.93 122.728L337.621 122.249L343.544 121.465Z" fill="#6779B7"/>
<path d="M356.03 183.101C355.966 182.817 355.905 182.53 355.845 182.238C353.898 182.88 351.939 183.472 349.936 183.949C346.969 184.655 343.966 185.151 340.931 185.442C334.854 186.025 328.701 185.821 322.644 185.11C319.696 184.764 316.771 184.277 313.85 183.762C314.628 184.101 315.401 184.419 316.17 184.717C320.887 185.74 325.74 186.263 330.535 186.454C336.731 186.701 342.982 186.232 349.06 184.995C351.407 184.516 353.754 183.896 356.03 183.101Z" fill="#2E344B"/>
<path d="M286.376 168.312L329.169 203.682C331.47 205.584 334.858 205.35 336.876 203.15L337.601 202.359C339.639 200.138 339.557 196.703 337.416 194.582L298.021 155.55L286.376 168.312Z" fill="#2E344B"/>
<path d="M338.083 87.9074C338.083 87.9074 339.196 80.4484 348.015 80.0214C356.834 79.5944 360.35 86.2544 361.076 92.8594C361.803 99.4644 362.692 102.929 364.813 104.276C364.813 104.276 356.262 111.551 349.335 102.992C342.409 94.4334 338.083 87.9074 338.083 87.9074Z" fill="#5F2A3D"/>
<path d="M344.29 80.7305C338.866 82.6845 338.083 87.9075 338.083 87.9075C338.083 87.9075 342.237 94.1695 348.912 102.464C350.119 102.268 351.055 101.181 351.53 98.8015C353.561 88.6285 346.968 82.6815 344.29 80.7305Z" fill="#2E344B"/>
<path d="M323.947 116.8C318.413 112.971 315.802 113.672 314.692 99.2389C313.582 84.8059 336.201 72.6649 347.13 86.5129C354.003 95.2209 354.606 110.842 343.543 114.654C331.154 118.923 323.947 116.8 323.947 116.8Z" fill="#5F2A3D"/>
<path d="M267.234 175.41C288.18 175.41 305.16 158.43 305.16 137.484C305.16 116.538 288.18 99.5576 267.234 99.5576C246.288 99.5576 229.308 116.538 229.308 137.484C229.308 158.43 246.288 175.41 267.234 175.41Z" fill="#2E344B"/>
<path d="M267.233 166.065C283.019 166.065 295.815 153.269 295.815 137.483C295.815 121.698 283.019 108.901 267.233 108.901C251.448 108.901 238.651 121.698 238.651 137.483C238.651 153.269 251.448 166.065 267.233 166.065Z" fill="#B9CFE6"/>
<path d="M325.538 115.749C325.538 115.749 325.458 117.823 325.059 119.498C324.66 121.173 321.111 121.891 321.111 121.891C321.111 121.891 323.544 127.873 329.127 128.99L331.041 137.046L333.753 129.309C333.753 129.309 340.274 128.325 343.544 121.465C343.544 121.465 342.287 121.333 340.612 120.615C338.937 119.897 339.017 115.032 339.017 115.032L325.538 115.749Z" fill="#D8877B"/>
<path d="M291.321 177.723C290.275 173.977 291.321 171.502 292.198 170.305C293.075 169.109 293.793 170.624 293.873 171.103C293.953 171.582 293.713 174.772 293.713 174.772C293.713 174.772 294.351 172.778 295.627 170.545C296.903 168.312 298.339 167.594 299.216 169.269C299.216 169.269 300.492 168.551 301.29 170.465C301.29 170.465 302.965 170.784 302.646 173.017C302.646 173.017 303.763 173.974 303.364 175.569C302.965 177.164 301.21 178.999 300.493 181.471C299.775 183.945 292.741 182.807 291.321 177.723Z" fill="#D8877B"/>
<path d="M358.56 158.62C356.107 159.278 345.459 156.646 344.083 155.868C344.083 155.868 344.831 155.12 345.878 154.911L352.339 156.556L354.971 157.184L357.204 157.862L358.56 158.62Z" fill="#2E344B"/>
<path d="M345.878 154.912C345.878 154.912 344.761 159.02 343.007 161.492C341.252 163.965 324.901 180.674 324.024 181.392C323.147 182.11 317.404 181.871 315.729 182.908C314.054 183.945 315.41 185.062 316.686 184.982C317.962 184.902 320.116 185.221 320.116 185.221C320.116 185.221 318.76 187.614 317.962 188.411C317.164 189.209 314.772 190.405 313.894 190.644C313.017 190.883 313.176 192.877 314.213 192.798C314.213 192.798 313.176 194.633 315.33 195.35C315.33 195.35 314.851 196.546 316.925 196.706C316.925 196.706 317.005 197.264 319.238 197.105C321.471 196.945 324.263 194.074 325.459 192.878C326.655 191.682 328.729 187.933 329.287 187.534C329.845 187.135 348.19 172.061 350.982 168.87C353.774 165.679 357.203 157.863 357.203 157.863C357.203 157.863 351.381 153.795 345.878 154.912Z" fill="#D8877B"/>
<path d="M341.561 120.975C341.264 120.874 340.95 120.759 340.612 120.614C338.937 119.896 339.017 115.031 339.017 115.031L331.774 115.417L327.349 116.123L325.383 117.595C325.353 117.844 325.316 118.106 325.274 118.371C326.767 119.726 332.405 123.984 341.561 120.975Z" fill="#B44E50"/>
<path d="M344.596 100.755C344.596 100.755 347.98 98.7502 350.109 102.129C352.238 105.508 348.767 108.384 345.917 108.383C345.917 108.383 343.226 120.307 332.922 120.751C322.667 121.193 318.255 110.691 317.424 102.919C317.424 102.919 322.04 100.737 322.552 98.2362C323.064 95.7352 329.373 95.4632 332.521 90.8662C332.521 90.8662 334.95 95.4712 337.935 95.7142C340.919 95.9562 343.903 99.0502 344.596 100.755Z" fill="#D8877B"/>
<path d="M337.934 95.7132C334.949 95.4702 332.52 90.8652 332.52 90.8652C329.372 95.4622 323.063 95.7342 322.551 98.2352C322.039 100.736 317.424 102.918 317.424 102.918C317.452 103.179 317.484 103.443 317.52 103.709C319.313 103.295 322.548 101.018 323.296 99.3082C324.133 97.3942 329.248 96.5262 332.239 93.0572C332.239 93.0572 334.452 96.4672 337.683 96.8262C340.202 97.1062 342.806 99.1602 344.178 99.9752C343.07 98.2442 340.505 95.9232 337.934 95.7132Z" fill="#B44E50"/>
<path d="M348.756 102.692C348.865 102.424 348.612 102.14 348.426 101.982C348.204 101.795 347.968 101.645 347.689 101.559C347.18 101.403 346.57 101.503 346.209 101.918C345.877 102.3 345.813 102.829 345.835 103.318C345.864 103.935 345.943 104.555 346.041 105.164C346.095 105.502 346.609 105.626 346.823 105.37C347.03 105.124 347.513 104.799 347.792 105.15C347.91 105.299 347.837 105.528 347.76 105.676C347.693 105.803 347.597 105.911 347.528 106.037C347.452 106.176 347.406 106.325 347.371 106.478C347.323 106.685 347.508 106.904 347.728 106.835C348.209 106.685 348.505 106.331 348.667 105.859C348.822 105.406 348.746 104.911 348.435 104.544C348.026 104.061 347.407 104.004 346.872 104.21C346.847 103.973 346.809 103.737 346.799 103.497C346.786 103.2 346.749 102.798 346.949 102.563C347.418 102.017 348.433 103.482 348.756 102.692Z" fill="#B44E50"/>
<path d="M345.877 154.912C345.877 154.912 345.812 155.148 345.693 155.533C346.602 155.822 352.144 156.745 356.334 159.747C356.872 158.616 357.202 157.863 357.202 157.863C357.202 157.863 351.38 153.795 345.877 154.912Z" fill="#B44E50"/>
<path d="M321.593 188.47C321.279 188.616 321.056 188.969 320.835 189.227C320.584 189.519 320.334 189.815 320.063 190.089C319.56 190.597 318.993 191.045 318.38 191.413C317.169 192.141 315.837 192.662 314.436 192.867C314.286 192.889 314.32 193.143 314.472 193.133C315.937 193.034 317.379 192.619 318.619 191.822C319.221 191.435 319.787 190.99 320.293 190.484C320.594 190.184 320.876 189.867 321.156 189.549C321.397 189.275 321.714 189.011 321.849 188.668C321.91 188.51 321.715 188.413 321.593 188.47Z" fill="#B44E50"/>
<path d="M323.213 191.11C322.649 191.588 322.134 192.109 321.54 192.555C320.952 192.996 320.322 193.384 319.671 193.727C318.367 194.416 316.947 194.884 315.507 195.195C315.314 195.237 315.4 195.516 315.587 195.486C317.087 195.248 318.514 194.748 319.868 194.065C320.544 193.724 321.193 193.331 321.816 192.901C322.426 192.48 323.072 192.021 323.573 191.471C323.797 191.226 323.462 190.899 323.213 191.11Z" fill="#B44E50"/>
<path d="M323.232 193.392C322.746 193.549 322.355 193.968 321.939 194.257C321.49 194.57 321.024 194.859 320.541 195.116C320.058 195.373 319.562 195.603 319.052 195.802C318.528 196.007 317.974 196.149 317.456 196.364C317.306 196.426 317.299 196.709 317.499 196.683C318.045 196.612 318.601 196.406 319.112 196.205C319.637 195.998 320.151 195.763 320.649 195.499C321.147 195.235 321.632 194.945 322.097 194.628C322.527 194.335 323.101 194.01 323.34 193.534C323.377 193.464 323.317 193.365 323.232 193.392Z" fill="#B44E50"/>
<path d="M298.937 169.404C298.688 169.397 298.517 169.648 298.37 169.823C298.182 170.047 298.013 170.291 297.847 170.531C297.49 171.047 297.175 171.591 296.896 172.154C296.63 172.69 296.388 173.241 296.182 173.803C296.077 174.09 295.981 174.38 295.894 174.673C295.819 174.928 295.661 175.282 295.765 175.54C295.824 175.688 295.988 175.745 296.114 175.632C296.304 175.462 296.328 175.154 296.392 174.916C296.472 174.621 296.561 174.329 296.659 174.04C296.855 173.467 297.087 172.908 297.365 172.37C297.629 171.858 297.927 171.362 298.246 170.882C298.415 170.627 298.601 170.386 298.777 170.137C298.912 169.947 299.11 169.743 299.06 169.498C299.049 169.442 298.99 169.405 298.937 169.404Z" fill="#B44E50"/>
<path d="M301.117 170.757C300.867 170.756 300.7 170.957 300.533 171.122C300.335 171.318 300.153 171.529 299.982 171.75C299.645 172.185 299.362 172.657 299.124 173.153C298.871 173.68 298.654 174.232 298.495 174.794C298.41 175.098 298.333 175.404 298.262 175.711C298.193 176.008 298.09 176.325 298.09 176.632C298.09 176.773 298.295 176.838 298.364 176.706C298.491 176.462 298.544 176.182 298.622 175.92C298.702 175.651 298.785 175.383 298.875 175.117C299.066 174.549 299.264 173.981 299.522 173.439C299.743 172.976 300.002 172.53 300.308 172.118C300.462 171.911 300.629 171.714 300.809 171.528C300.972 171.359 301.228 171.205 301.274 170.962C301.293 170.86 301.23 170.758 301.117 170.757Z" fill="#B44E50"/>
<path d="M302.451 173.166C302.219 173.143 302.066 173.33 301.919 173.484C301.752 173.66 301.605 173.855 301.468 174.055C301.17 174.487 300.93 174.957 300.724 175.438C300.524 175.905 300.353 176.383 300.198 176.867C300.054 177.313 299.753 177.925 299.961 178.386C300.028 178.535 300.245 178.449 300.249 178.308C300.258 178.036 300.277 177.809 300.361 177.548C300.437 177.314 300.515 177.082 300.595 176.849C300.754 176.388 300.92 175.927 301.119 175.481C301.306 175.064 301.521 174.659 301.778 174.282C301.919 174.076 302.075 173.88 302.238 173.69C302.363 173.545 302.505 173.426 302.505 173.22C302.505 173.189 302.481 173.169 302.451 173.166Z" fill="#B44E50"/>
<path d="M316.745 135.06C316.034 135.929 315.723 137.1 315.374 138.149C314.977 139.341 314.667 140.564 314.405 141.793C314.16 142.943 313.965 144.102 313.833 145.271C313.714 146.328 313.378 147.743 313.819 148.754C313.857 148.842 313.998 148.832 314.039 148.754C314.274 148.312 314.301 147.811 314.342 147.32C314.393 146.712 314.449 146.105 314.523 145.499C314.672 144.284 314.866 143.071 315.113 141.872C315.352 140.714 315.652 139.573 315.972 138.435C316.278 137.346 316.786 136.249 316.868 135.114C316.875 135.051 316.785 135.011 316.745 135.06Z" fill="#2E344B"/>
<path d="M342.66 128.21C343.71 127.147 344.537 125.894 345.113 124.517C345.399 123.835 345.65 123.122 345.752 122.387C345.775 122.216 345.806 122.037 345.836 121.855C345.659 121.82 345.479 121.787 345.299 121.754C345.263 121.943 345.221 122.131 345.158 122.316C344.929 122.992 344.725 123.669 344.423 124.319C343.836 125.578 343.037 126.747 342.049 127.726C341.063 128.703 339.891 129.504 338.628 130.078C338.005 130.361 337.36 130.57 336.701 130.75C336.358 130.844 336.014 130.93 335.665 130.997C335.508 131.027 335.366 131.043 335.235 131.085C335.096 131.075 334.95 131.138 334.891 131.306C333.79 134.457 332.483 137.499 330.871 140.418C330.278 138.924 329.848 137.383 329.43 135.828C329.195 134.953 328.981 134.073 328.779 133.19C328.593 132.38 328.489 131.421 328.118 130.675C328.11 130.66 328.096 130.659 328.088 130.647C328.099 130.595 328.1 130.538 328.077 130.472C327.951 130.094 327.243 130.02 326.915 129.909C325.109 129.298 323.441 128.292 322.068 126.969C320.77 125.717 319.698 124.17 318.906 122.528C318.802 122.561 318.7 122.594 318.593 122.63C319.541 125.878 322.037 128.544 325.068 130.041C325.47 130.24 325.883 130.414 326.306 130.565C326.68 130.698 327.123 130.88 327.535 130.907C327.532 131.33 327.651 131.759 327.73 132.172C327.821 132.65 327.918 133.125 328.023 133.6C328.218 134.484 328.419 135.369 328.654 136.244C329.13 138.016 329.78 139.752 330.52 141.43C330.63 141.679 331.011 141.642 331.132 141.43C332.897 138.325 334.409 135.029 335.479 131.616C335.946 131.638 336.528 131.474 336.881 131.401C337.606 131.251 338.316 130.998 338.995 130.704C340.362 130.11 341.612 129.272 342.66 128.21Z" fill="#2E344B"/>
<path d="M346.867 140.221C346.854 140.186 346.794 140.165 346.775 140.209C346.317 141.25 346.398 142.571 346.297 143.691C346.175 145.048 346 146.397 345.801 147.745C345.414 150.352 344.75 152.889 344.243 155.471C344.18 155.791 344.615 155.908 344.728 155.605C345.652 153.12 346.125 150.434 346.518 147.82C346.706 146.569 346.839 145.309 346.94 144.048C346.991 143.413 347.029 142.78 347.041 142.143C347.052 141.478 347.104 140.852 346.867 140.221Z" fill="#2E344B"/>
<path d="M339.126 163.073C338.365 163.333 337.698 163.77 336.992 164.15C336.2 164.575 335.383 164.957 334.544 165.28C332.915 165.905 331.213 166.347 329.47 166.477C326.212 166.719 322.744 165.873 320.104 163.913C320.072 163.89 320.033 163.941 320.062 163.968C322.613 166.276 325.967 167.244 329.37 167.058C331.159 166.961 332.94 166.567 334.613 165.928C335.437 165.613 336.242 165.248 337.023 164.838C337.827 164.416 338.649 163.982 339.259 163.3C339.341 163.206 339.262 163.027 339.126 163.073Z" fill="#2E344B"/>
<path d="M340.183 160.784C339.568 161.206 338.963 161.637 338.309 161.999C337.943 162.201 337.562 162.369 337.192 162.561C336.845 162.741 336.428 162.868 336.136 163.132C336.119 163.147 336.134 163.169 336.152 163.172C336.503 163.219 336.87 163.084 337.203 162.987C337.548 162.886 337.878 162.746 338.207 162.599C338.883 162.295 339.555 161.946 340.158 161.513C340.374 161.358 340.887 161.078 340.857 160.763C340.821 160.387 340.336 160.679 340.183 160.784Z" fill="#2E344B"/>
<path d="M333.35 209.422C333.341 208.866 333.341 208.309 333.341 207.753C333.341 207.252 333.472 206.582 333.228 206.129C333.118 205.925 332.836 205.952 332.72 206.129C332.568 206.362 332.564 206.648 332.551 206.919C332.536 207.218 332.524 207.518 332.515 207.817C332.497 208.373 332.497 208.929 332.505 209.486C332.521 210.626 332.522 211.786 332.81 212.895C332.895 213.222 333.334 213.122 333.365 212.82C333.478 211.691 333.367 210.554 333.35 209.422Z" fill="#2E344B"/>
<path d="M327.583 227.252C328.053 224.95 328.56 222.656 329.115 220.373C329.686 218.024 330.407 215.673 330.808 213.29C330.822 213.208 330.699 213.136 330.659 213.227C329.846 215.138 329.35 217.191 328.807 219.192C328.243 221.268 327.754 223.369 327.3 225.471C326.392 229.679 325.646 233.925 325.07 238.191C323.927 246.65 323.365 255.257 323.566 263.793C323.675 268.419 323.937 273.075 324.591 277.66C320.095 277.648 315.6 277.634 311.104 277.643C310.454 277.644 309.803 277.64 309.152 277.638C309.19 277.929 309.227 278.207 309.262 278.475C314.408 278.484 319.553 278.47 324.699 278.453C325.683 278.45 326.666 278.448 327.65 278.446C327.63 278.193 327.609 277.937 327.588 277.665C326.823 277.663 326.059 277.664 325.294 277.662C324.928 273.589 324.553 269.524 324.402 265.435C324.245 261.181 324.219 256.906 324.388 252.652C324.727 244.13 325.877 235.604 327.583 227.252Z" fill="#2E344B"/>
<path d="M361.786 277.619C360.722 277.622 359.657 277.625 358.593 277.628C358.635 277.576 358.665 277.51 358.661 277.421C358.432 271.776 358.143 266.137 358.102 260.485C358.082 257.704 358.101 254.921 358.201 252.142C358.302 249.337 358.574 246.54 358.651 243.735C358.801 238.215 357.767 232.774 357.522 227.274C357.399 224.528 357.526 221.78 357.542 219.032C357.557 216.293 357.463 213.552 357.248 210.821C356.771 204.779 355.844 198.64 353.975 192.862C353.911 192.663 353.616 192.744 353.662 192.948C354.873 198.316 355.991 203.672 356.505 209.159C356.757 211.845 356.901 214.543 356.919 217.24C356.937 219.98 356.792 222.72 356.826 225.46C356.893 230.967 357.981 236.405 358.021 241.912C358.041 244.672 357.793 247.426 357.637 250.179C357.48 252.956 357.378 255.738 357.372 258.52C357.357 264.821 357.62 271.131 357.99 277.42C357.995 277.509 358.032 277.575 358.081 277.628C354.622 277.638 351.163 277.65 347.705 277.657C346.368 277.659 345.032 277.663 343.695 277.666C343.764 277.941 343.831 278.203 343.896 278.456C348.872 278.465 353.847 278.476 358.823 278.485C359.822 278.487 360.822 278.49 361.821 278.493C361.808 278.212 361.797 277.921 361.786 277.619Z" fill="#2E344B"/>
<path d="M326.376 106.141C326.32 105.43 326.025 104.742 325.481 104.462C325.322 104.38 325.154 104.342 324.977 104.347C324.857 104.325 324.74 104.334 324.625 104.373C324.449 104.394 324.289 104.456 324.144 104.56C324.059 104.633 323.975 104.706 323.891 104.779C323.739 104.95 323.639 105.145 323.592 105.365C323.374 106.384 323.52 108.455 325.036 108.278C325.382 108.237 325.734 108.101 325.958 107.83C326.284 107.433 326.426 106.778 326.376 106.141Z" fill="#2E344B"/>
<path d="M336.139 106.389C336.083 105.678 335.788 104.99 335.244 104.71C335.085 104.628 334.917 104.59 334.74 104.595C334.62 104.573 334.503 104.582 334.388 104.621C334.212 104.642 334.052 104.704 333.907 104.808C333.822 104.881 333.738 104.954 333.654 105.027C333.502 105.198 333.402 105.393 333.355 105.613C333.137 106.632 333.283 108.703 334.799 108.526C335.145 108.485 335.497 108.35 335.721 108.078C336.047 107.681 336.189 107.026 336.139 106.389Z" fill="#2E344B"/>
<path d="M329.886 111.571C329.746 111.437 329.61 111.315 329.45 111.203C329.304 111.102 329.148 111.019 329.017 110.897C328.755 110.655 328.598 110.327 328.86 110.027C329.166 109.677 329.402 109.305 329.558 108.865C329.693 108.486 329.854 107.91 329.654 107.534C329.568 107.371 329.328 107.384 329.238 107.534C329.113 107.744 329.106 108.021 329.038 108.255C328.972 108.483 328.878 108.698 328.757 108.902C328.637 109.105 328.499 109.287 328.338 109.459C328.14 109.671 327.972 109.887 327.942 110.185C327.893 110.657 328.142 111.119 328.495 111.418C328.668 111.565 328.861 111.7 329.069 111.793C329.288 111.891 329.498 111.919 329.735 111.932C329.92 111.945 330.015 111.695 329.886 111.571Z" fill="#B44E50"/>
<path d="M334.53 104.982C334.497 104.867 334.439 104.766 334.354 104.681L334.216 104.574C334.11 104.512 333.995 104.481 333.872 104.481C333.778 104.477 333.69 104.497 333.609 104.54C333.524 104.567 333.451 104.615 333.389 104.681C333.323 104.743 333.276 104.816 333.248 104.901C333.205 104.982 333.186 105.07 333.189 105.164C333.197 105.225 333.205 105.285 333.213 105.345C333.245 105.461 333.304 105.561 333.388 105.646L333.526 105.753C333.632 105.815 333.747 105.846 333.87 105.846C333.964 105.85 334.052 105.83 334.133 105.787C334.218 105.759 334.291 105.712 334.352 105.646C334.419 105.584 334.466 105.511 334.493 105.427C334.536 105.346 334.555 105.258 334.552 105.164C334.546 105.102 334.538 105.042 334.53 104.982Z" fill="white"/>
<path d="M324.11 109.155C324.11 109.886 323.202 110.479 322.083 110.479C320.964 110.479 320.056 109.886 320.056 109.155C320.056 108.424 320.964 107.831 322.083 107.831C323.203 107.831 324.11 108.424 324.11 109.155Z" fill="#C85F64"/>
<path d="M339.993 109.444C339.993 110.175 339.086 110.768 337.966 110.768C336.847 110.768 335.939 110.175 335.939 109.444C335.939 108.713 336.846 108.12 337.966 108.12C339.086 108.12 339.993 108.713 339.993 109.444Z" fill="#C85F64"/>
<path d="M336.553 103.789C336.482 103.718 336.359 103.676 336.261 103.712C336.238 103.72 336.216 103.729 336.193 103.739C336.166 103.747 336.143 103.76 336.123 103.78C336.11 103.79 336.097 103.8 336.084 103.811C336.08 103.815 336.076 103.82 336.071 103.825C336.052 103.845 336.032 103.865 336.013 103.886L335.898 104.008C335.864 104.044 335.833 104.083 335.812 104.128C335.8 104.153 335.789 104.177 335.777 104.202C335.771 104.214 335.765 104.227 335.76 104.239C335.757 104.246 335.753 104.253 335.75 104.26C335.745 104.271 335.74 104.282 335.736 104.294C335.725 104.313 335.719 104.334 335.719 104.357C335.711 104.414 335.722 104.47 335.75 104.521C335.767 104.552 335.796 104.586 335.827 104.601C335.839 104.607 335.851 104.612 335.864 104.617C335.927 104.644 335.996 104.644 336.059 104.617C336.093 104.603 336.125 104.587 336.157 104.571C336.18 104.56 336.203 104.548 336.225 104.537C336.271 104.514 336.31 104.481 336.347 104.445C336.384 104.408 336.422 104.371 336.459 104.334C336.479 104.314 336.499 104.295 336.519 104.275C336.523 104.271 336.528 104.266 336.532 104.262C336.549 104.241 336.565 104.219 336.582 104.198L336.588 104.191C336.607 104.158 336.618 104.12 336.63 104.084C336.664 103.981 336.626 103.861 336.553 103.789Z" fill="#C85F64"/>
<path d="M337.059 104.969C337.053 104.954 337.046 104.939 337.04 104.924C337.028 104.902 337.012 104.884 336.991 104.871C336.979 104.859 336.965 104.851 336.95 104.847C336.927 104.835 336.903 104.83 336.877 104.831L336.786 104.82C336.771 104.818 336.756 104.816 336.74 104.814C336.708 104.81 336.676 104.816 336.645 104.822C336.616 104.827 336.586 104.831 336.558 104.839C336.519 104.85 336.483 104.874 336.448 104.894C336.353 104.947 336.353 105.094 336.448 105.147C336.482 105.166 336.517 105.187 336.554 105.2C336.583 105.21 336.615 105.213 336.645 105.218C336.675 105.224 336.705 105.23 336.736 105.226C336.751 105.224 336.766 105.222 336.782 105.22L336.877 105.208C336.894 105.206 336.91 105.203 336.927 105.201C336.952 105.195 336.973 105.184 336.991 105.167C337.022 105.143 337.05 105.108 337.059 105.069C337.063 105.053 337.067 105.034 337.067 105.019C337.066 105.002 337.063 104.985 337.059 104.969Z" fill="#C85F64"/>
<path d="M324.437 104.754C324.404 104.638 324.346 104.538 324.261 104.453L324.123 104.346C324.017 104.284 323.902 104.253 323.779 104.253C323.685 104.249 323.597 104.269 323.516 104.312C323.431 104.339 323.358 104.386 323.296 104.453C323.23 104.515 323.183 104.588 323.155 104.673C323.112 104.754 323.093 104.842 323.096 104.936C323.104 104.997 323.112 105.057 323.12 105.117C323.152 105.233 323.211 105.333 323.295 105.418L323.433 105.525C323.539 105.587 323.654 105.618 323.777 105.618C323.871 105.622 323.959 105.602 324.04 105.559C324.125 105.532 324.198 105.485 324.259 105.418C324.326 105.356 324.373 105.283 324.4 105.199C324.443 105.118 324.462 105.03 324.459 104.936C324.453 104.875 324.445 104.815 324.437 104.754Z" fill="white"/>
<path d="M322.918 103.844C322.909 103.826 322.897 103.808 322.882 103.795C322.855 103.769 322.824 103.752 322.788 103.741L322.818 103.754C322.79 103.742 322.765 103.725 322.74 103.708C322.733 103.702 322.727 103.696 322.72 103.689C322.701 103.67 322.681 103.65 322.657 103.637C322.648 103.633 322.64 103.628 322.632 103.624C322.603 103.607 322.581 103.585 322.547 103.577C322.523 103.572 322.499 103.573 322.475 103.57C322.479 103.571 322.482 103.571 322.486 103.571C322.448 103.566 322.413 103.576 322.385 103.603C322.382 103.606 322.379 103.61 322.376 103.613C322.364 103.627 322.353 103.64 322.343 103.655C322.332 103.67 322.326 103.682 322.321 103.704C322.317 103.722 322.313 103.744 322.315 103.762C322.318 103.798 322.323 103.835 322.333 103.87C322.334 103.875 322.336 103.878 322.337 103.883C322.35 103.922 322.367 103.954 322.395 103.986C322.402 103.994 322.41 104.002 322.418 104.01C322.461 104.052 322.51 104.09 322.563 104.118C322.572 104.123 322.581 104.127 322.591 104.131C322.633 104.15 322.678 104.172 322.726 104.17C322.786 104.167 322.846 104.146 322.887 104.101C322.921 104.063 322.953 104.015 322.948 103.961C322.944 103.92 322.94 103.883 322.918 103.844Z" fill="#C85F64"/>
<path d="M322.469 104.896C322.438 104.876 322.405 104.855 322.368 104.847C322.329 104.838 322.289 104.836 322.249 104.832C322.203 104.827 322.157 104.825 322.111 104.824C321.985 104.823 321.851 104.833 321.738 104.896C321.654 104.944 321.603 105.058 321.634 105.152C321.666 105.251 321.749 105.313 321.853 105.319C321.873 105.32 321.893 105.316 321.913 105.315C321.953 105.312 321.993 105.309 322.032 105.301C322.063 105.294 322.094 105.29 322.124 105.285C322.162 105.281 322.2 105.277 322.238 105.275C322.262 105.274 322.286 105.275 322.31 105.274C322.352 105.273 322.385 105.262 322.422 105.249C322.496 105.223 322.549 105.169 322.56 105.089C322.571 105.01 322.535 104.939 322.469 104.896Z" fill="#C85F64"/>
<path d="M324.969 100.576C325.053 100.471 325.113 100.374 325.132 100.236C325.149 100.112 325.135 99.9652 325.062 99.8582C325.014 99.7882 324.962 99.7102 324.905 99.6522C324.786 99.5312 324.646 99.4762 324.489 99.4182C324.277 99.3402 324.019 99.3812 323.805 99.4212C323.513 99.4762 323.229 99.5882 322.969 99.7312C322.722 99.8682 322.462 100.045 322.276 100.258C322.036 100.533 321.774 100.927 321.778 101.302C321.784 101.83 322.348 102.132 322.801 101.889C323.005 101.78 323.151 101.574 323.333 101.432C323.28 101.473 323.227 101.514 323.175 101.554C323.257 101.491 323.338 101.426 323.419 101.362C323.561 101.256 323.716 101.172 323.876 101.097C324.01 101.047 324.143 100.998 324.284 100.968C324.426 100.938 324.559 100.891 324.687 100.821C324.791 100.764 324.883 100.69 324.955 100.596C324.955 100.596 324.961 100.588 324.962 100.586C324.953 100.596 324.951 100.598 324.969 100.576Z" fill="#5F2A3D"/>
<path d="M324.961 100.588C324.982 100.564 325.052 100.478 325.026 100.503C325.007 100.52 324.97 100.574 324.961 100.588Z" fill="#5F2A3D"/>
<path d="M336.512 101.555C336.467 101.574 336.456 101.578 336.512 101.555Z" fill="#5F2A3D"/>
<path d="M333.66 100.431C333.657 100.429 333.656 100.427 333.654 100.425C333.643 100.417 333.634 100.412 333.623 100.403C333.626 100.405 333.643 100.418 333.66 100.431Z" fill="#5F2A3D"/>
<path d="M336.697 100.432C336.401 99.9449 335.872 99.6329 335.34 99.4679C335.078 99.3869 334.799 99.3379 334.524 99.3389C334.176 99.3409 333.819 99.3779 333.562 99.6369C333.317 99.8849 333.402 100.231 333.653 100.425C333.727 100.481 333.788 100.52 333.88 100.553C333.926 100.569 333.972 100.582 334.02 100.592C334.123 100.615 334.225 100.636 334.325 100.667C334.415 100.695 334.503 100.729 334.592 100.761C334.64 100.778 334.686 100.799 334.734 100.815C334.513 100.74 334.686 100.796 334.746 100.827C334.929 100.919 335.109 101.032 335.277 101.149C335.284 101.154 335.29 101.16 335.297 101.166C335.287 101.156 335.284 101.154 335.27 101.141C335.343 101.212 335.432 101.275 335.516 101.332C335.597 101.386 335.676 101.446 335.764 101.486C335.848 101.525 335.932 101.57 336.019 101.598C336.078 101.617 336.157 101.63 336.219 101.63C336.329 101.63 336.411 101.591 336.509 101.555C336.522 101.549 336.529 101.546 336.552 101.537L336.511 101.554C336.51 101.554 336.51 101.554 336.509 101.555C336.521 101.551 336.531 101.547 336.543 101.543C336.548 101.541 336.553 101.537 336.558 101.535C336.561 101.534 336.56 101.534 336.563 101.533C336.594 101.513 336.629 101.485 336.655 101.46C336.944 101.191 336.885 100.741 336.697 100.432Z" fill="#5F2A3D"/>
<path d="M335.299 101.166C335.401 101.263 335.353 101.209 335.299 101.166Z" fill="#5F2A3D"/>
<path d="M333.66 100.431C333.662 100.433 333.664 100.436 333.666 100.437C333.712 100.471 333.687 100.452 333.66 100.431Z" fill="#5F2A3D"/>
<path d="M330.819 113.333C330.432 113.102 329.911 113.018 329.468 113.054C328.93 113.099 328.426 113.274 328.021 113.638C327.747 113.885 328.098 114.315 328.408 114.139C328.745 113.948 329.122 113.829 329.509 113.827C329.612 113.826 329.714 113.834 329.817 113.845C329.826 113.846 329.91 113.854 329.866 113.849C329.827 113.844 329.895 113.854 329.895 113.854C329.956 113.865 330.016 113.876 330.076 113.891C330.317 113.95 330.476 114.037 330.668 114.105C330.789 114.148 330.935 114.199 331.059 114.145C331.078 114.137 331.127 114.098 331.145 114.085C331.178 114.054 331.201 114.033 331.221 113.988C331.339 113.711 331.029 113.459 330.819 113.333Z" fill="#B44E50"/>
<path d="M331.144 114.083C331.139 114.088 331.138 114.094 331.132 114.099C331.158 114.076 331.155 114.076 331.144 114.083Z" fill="#B44E50"/>
<path d="M261.905 117.465C261.703 115.96 260.265 114.362 258.599 114.546C257.283 114.691 256.197 115.044 255.028 115.68C254.457 115.991 253.9 116.33 253.359 116.689C252.014 117.581 250.717 118.59 249.569 119.726C248.455 120.828 247.41 122.069 246.716 123.478C246.323 124.276 245.995 125.105 245.763 125.964C245.566 126.69 245.515 127.401 245.713 128.138C246.021 129.282 247.077 130.413 248.372 130.314C249.256 130.246 249.994 129.931 250.635 129.319C250.998 128.972 251.239 128.545 251.511 128.132C251.818 127.667 252.155 127.218 252.492 126.774C252.828 126.35 253.165 125.928 253.494 125.498C253.316 125.729 253.137 125.96 252.959 126.191C253.85 125.052 254.882 124.044 256.007 123.139C256.917 122.465 257.885 121.833 258.899 121.326C259.094 121.262 259.286 121.191 259.494 121.159C260.24 121.045 261.164 120.259 261.506 119.612C261.864 118.931 262.007 118.231 261.905 117.465Z" fill="white"/>
<path d="M272.962 115.753C272.961 115.49 272.895 115.245 272.763 115.018C272.694 114.771 272.569 114.557 272.388 114.375C272.318 114.241 272.225 114.128 272.109 114.038C271.911 113.885 271.713 113.732 271.515 113.579C271.476 113.552 271.437 113.525 271.397 113.499C271.11 113.313 270.785 113.184 270.455 113.095C270.245 113.038 270.033 112.991 269.82 112.954C269.384 112.877 268.943 112.819 268.502 112.775C268.287 112.754 268.071 112.735 267.855 112.759C267.429 112.807 266.997 112.862 266.577 112.953C266.474 112.976 266.371 113.001 266.269 113.028C266.106 113.072 265.979 113.131 265.813 113.201C265.491 113.337 265.15 113.527 264.915 113.796C264.473 114.301 264.114 114.954 264.146 115.653C264.175 116.303 264.382 117.087 264.915 117.51C265.297 117.813 265.633 118.114 266.133 118.227C266.214 118.245 266.299 118.254 266.382 118.266C266.597 118.3 266.811 118.337 267.022 118.391C267.265 118.453 267.513 118.483 267.758 118.535C268.005 118.587 268.249 118.652 268.49 118.73C268.605 118.767 268.719 118.807 268.831 118.85C268.955 118.898 269.089 118.916 269.22 118.939C269.207 118.937 269.194 118.936 269.181 118.934C269.199 118.937 269.218 118.94 269.236 118.943C269.348 118.962 269.457 118.986 269.57 118.997C269.726 119.023 269.883 119.045 270.033 119.049C270.186 119.062 270.337 119.046 270.487 119.001C270.75 119 270.995 118.934 271.222 118.802C271.469 118.733 271.683 118.608 271.865 118.428C271.978 118.361 272.079 118.282 272.17 118.19C272.186 118.174 272.203 118.159 272.218 118.143C272.716 117.622 273.005 116.917 273.013 116.196C273.016 116.043 272.987 115.938 272.962 115.753Z" fill="white"/>
<path d="M281.636 156.057C281.538 155.643 281.348 155.283 281.067 154.976C280.486 154.224 279.559 153.667 278.57 153.723C278.471 153.729 278.371 153.731 278.272 153.735C277.557 153.763 276.967 153.939 276.349 154.271C276.116 154.396 275.907 154.525 275.691 154.677C275.493 154.816 275.289 154.947 275.081 155.07C274.826 155.221 274.59 155.399 274.358 155.582C273.53 156.181 272.514 156.608 272.031 157.556C271.799 158.011 271.698 158.465 271.767 158.976C271.836 159.491 272.044 159.853 272.38 160.255C273.084 161.099 274.112 161.204 275.12 161.303C275.566 161.347 276.017 161.362 276.464 161.337C277.212 161.294 277.885 161.096 278.57 160.819C279.109 160.601 279.493 160.446 279.925 160.119C280.456 159.717 280.94 159.372 281.221 158.741C281.367 158.414 281.505 158.082 281.637 157.749C281.787 157.184 281.787 156.621 281.636 156.057Z" fill="white"/>
<path d="M330.762 401.928H319.994L297.741 311.241H308.509L330.762 401.928Z" fill="#8EADD5"/>
<path d="M396.564 401.928H385.797L363.544 311.241H374.311L396.564 401.928Z" fill="#8EADD5"/>
<path d="M327.771 401.928H317.003L294.75 311.241H305.518L327.771 401.928Z" fill="#B9CFE6"/>
<path d="M270.345 401.928H281.112L303.365 311.241H292.598L270.345 401.928Z" fill="#8EADD5"/>
<path d="M393.813 401.928H383.045L360.792 311.241H371.559L393.813 401.928Z" fill="#B9CFE6"/>
<path d="M309.107 343.784H372.756V334.452H309.107V343.784Z" fill="#B9CFE6"/>
<path d="M319.157 377.044H382.806V367.712H319.157V377.044Z" fill="#B9CFE6"/>
<path d="M266.196 401.928H276.964L299.217 311.241H288.449L266.196 401.928Z" fill="#D3D3D3"/>
<path d="M336.227 401.928H346.994L369.247 311.241H358.48L336.227 401.928Z" fill="#8EADD5"/>
<path d="M332.238 401.928H343.005L365.258 311.241H354.491L332.238 401.928Z" fill="#D3D3D3"/>
<path d="M350.902 334.451H287.253V343.783H350.902V334.451Z" fill="#D3D3D3"/>
<path d="M340.852 367.711H277.203V377.043H340.852V367.711Z" fill="#D3D3D3"/>
<path d="M373.316 313.634H285.895C283.782 313.634 282.068 311.921 282.068 309.807V309.644C282.068 307.531 283.781 305.817 285.895 305.817H373.316C375.429 305.817 377.143 307.53 377.143 309.644V309.807C377.143 311.921 375.429 313.634 373.316 313.634Z" fill="#D3D3D3"/>
<path d="M48.0795 232.174H119.384C121.759 232.174 124.006 233.107 125.496 234.712L135.562 245.556C136.555 246.626 138.054 247.248 139.637 247.248H250.946C254.889 247.248 258.085 250.021 258.085 253.443V388.565C258.085 395.945 251.19 401.929 242.684 401.929H51.5965C45.6405 401.929 40.8115 397.739 40.8115 392.571V238.481C40.8125 234.998 44.0655 232.174 48.0795 232.174Z" fill="#D3723F"/>
<path d="M100.356 151.475L70.3574 181.474V296.43H217.412V151.475H100.356Z" fill="white"/>
<path d="M100.356 181.474V151.475L70.3574 181.474H100.356Z" fill="#B9CFE6"/>
<path d="M23.0641 266.043H220.641C225.298 266.043 229.294 268.92 230.154 272.891L255.931 391.98C257.05 397.149 252.48 401.929 246.418 401.929H48.8421C44.1851 401.929 40.1891 399.052 39.3291 395.081L13.5521 275.992C12.4331 270.822 17.0031 266.043 23.0641 266.043Z" fill="#EBAB6F"/>
<path d="M149.885 213.036C153.644 209.226 157.396 205.408 161.15 201.59C163.361 199.342 163.56 195.289 161.15 193.077C158.764 190.886 154.995 190.678 152.636 193.077C148.828 196.821 145.021 200.563 141.22 204.312C137.458 200.549 133.682 196.801 129.861 193.096C127.64 190.805 123.451 190.698 121.25 193.096C118.99 195.558 118.88 199.264 121.25 201.708C124.945 205.519 128.684 209.284 132.437 213.036C128.686 216.786 124.95 220.55 121.256 224.36C118.965 226.581 118.858 230.771 121.256 232.972C123.718 235.232 127.423 235.342 129.867 232.972C133.686 229.269 137.461 225.522 141.22 221.761C145.019 225.508 148.824 229.248 152.63 232.991C154.878 235.202 158.932 235.401 161.144 232.991C163.335 230.605 163.543 226.836 161.144 224.477C157.393 220.661 153.643 216.845 149.885 213.036Z" fill="#C85F64"/>
<path d="M28.5665 161.223H27.2785C27.0785 160.606 26.8305 160.011 26.5385 159.441L27.4505 158.529C28.3135 157.666 28.3135 156.268 27.4505 155.405L25.2755 153.229C24.4125 152.367 23.0145 152.367 22.1525 153.229L21.2405 154.141C20.6705 153.85 20.0755 153.601 19.4585 153.401V152.113C19.4585 150.893 18.4695 149.904 17.2495 149.904H14.1725C12.9525 149.904 11.9635 150.893 11.9635 152.113V153.401C11.3465 153.601 10.7515 153.849 10.1815 154.141L9.26951 153.229C8.40751 152.367 7.00851 152.367 6.14651 153.229L3.97051 155.405C3.10851 156.268 3.10851 157.666 3.97051 158.529L4.88251 159.441C4.59051 160.011 4.34251 160.605 4.14251 161.223H2.85451C1.63451 161.223 0.645508 162.212 0.645508 163.432V166.509C0.645508 167.729 1.63451 168.718 2.85451 168.718H4.14251C4.34251 169.335 4.59051 169.93 4.88251 170.5L3.97051 171.412C3.10851 172.275 3.10851 173.673 3.97051 174.535L6.14651 176.711C7.00851 177.573 8.40751 177.573 9.26951 176.711L10.1815 175.799C10.7515 176.09 11.3465 176.339 11.9635 176.539V177.827C11.9635 179.047 12.9525 180.036 14.1725 180.036H17.2495C18.4695 180.036 19.4585 179.047 19.4585 177.827V176.539C20.0755 176.339 20.6705 176.091 21.2405 175.799L22.1525 176.711C23.0155 177.573 24.4135 177.573 25.2755 176.711L27.4505 174.535C28.3135 173.672 28.3135 172.274 27.4505 171.412L26.5385 170.5C26.8295 169.93 27.0785 169.336 27.2785 168.718H28.5665C29.7865 168.718 30.7755 167.729 30.7755 166.509V163.432C30.7745 162.212 29.7855 161.223 28.5665 161.223ZM15.7105 172.699C11.4425 172.699 7.98151 169.239 7.98151 164.97C7.98151 160.702 11.4415 157.241 15.7105 157.241C19.9795 157.241 23.4395 160.701 23.4395 164.97C23.4395 169.239 19.9785 172.699 15.7105 172.699Z" fill="#C9B5A9"/>
<path d="M278.967 213.441H277.679C277.479 212.824 277.231 212.229 276.939 211.659L277.851 210.747C278.713 209.884 278.713 208.486 277.851 207.623L275.675 205.448C274.812 204.585 273.414 204.585 272.551 205.448L271.639 206.36C271.069 206.068 270.475 205.82 269.857 205.62V204.332C269.857 203.112 268.868 202.123 267.648 202.123H264.571C263.351 202.123 262.362 203.112 262.362 204.332V205.62C261.745 205.82 261.15 206.068 260.58 206.36L259.668 205.448C258.806 204.585 257.407 204.585 256.545 205.448L254.369 207.623C253.506 208.486 253.506 209.884 254.369 210.747L255.281 211.659C254.989 212.229 254.741 212.824 254.541 213.441H253.253C252.033 213.441 251.044 214.43 251.044 215.65V218.727C251.044 219.947 252.033 220.936 253.253 220.936H254.541C254.741 221.553 254.989 222.148 255.281 222.718L254.369 223.63C253.506 224.493 253.506 225.891 254.369 226.754L256.545 228.93C257.407 229.792 258.806 229.792 259.668 228.93L260.58 228.018C261.15 228.31 261.745 228.558 262.362 228.758V230.046C262.362 231.266 263.351 232.255 264.571 232.255H267.648C268.868 232.255 269.857 231.266 269.857 230.046V228.758C270.474 228.558 271.069 228.31 271.639 228.018L272.551 228.93C273.414 229.792 274.812 229.792 275.675 228.93L277.851 226.754C278.713 225.891 278.713 224.493 277.851 223.63L276.939 222.718C277.23 222.148 277.479 221.554 277.679 220.936H278.967C280.187 220.936 281.176 219.947 281.176 218.727V215.65C281.175 214.429 280.187 213.441 278.967 213.441ZM266.111 224.916C261.843 224.916 258.382 221.456 258.382 217.187C258.382 212.918 261.842 209.458 266.111 209.458C270.38 209.458 273.84 212.918 273.84 217.187C273.84 221.456 270.379 224.916 266.111 224.916Z" fill="#C9B5A9"/>
<path d="M63.2829 138.378L61.5859 137.735C61.6309 136.822 61.5999 135.914 61.5009 135.018L63.1579 134.271C64.7249 133.565 65.4229 131.723 64.7169 130.156L62.9359 126.204C62.2299 124.637 60.3879 123.939 58.8209 124.645L57.1639 125.392C56.5589 124.724 55.8989 124.1 55.1859 123.528L55.8289 121.831C56.4379 120.224 55.6279 118.427 54.0209 117.819L49.9669 116.284C48.3599 115.675 46.5639 116.485 45.9549 118.092L45.3119 119.789C44.3989 119.744 43.4909 119.775 42.5949 119.874L41.8479 118.217C41.1419 116.65 39.2989 115.952 37.7329 116.658L33.7809 118.439C32.2139 119.145 31.5159 120.987 32.2219 122.554L32.9689 124.211C32.3009 124.816 31.6759 125.476 31.1049 126.189L29.4079 125.546C27.8009 124.937 26.0049 125.747 25.3959 127.354L23.8609 131.408C23.2519 133.015 24.0619 134.812 25.6689 135.42L27.3659 136.063C27.3209 136.976 27.3519 137.884 27.4509 138.78L25.7939 139.527C24.2269 140.233 23.5289 142.075 24.2349 143.642L26.0159 147.594C26.7219 149.161 28.5639 149.859 30.1309 149.153L31.7879 148.406C32.3929 149.074 33.0529 149.699 33.7659 150.27L33.1229 151.967C32.5139 153.574 33.3239 155.37 34.9309 155.979L38.9849 157.514C40.5919 158.123 42.3879 157.313 42.9969 155.706L43.6399 154.009C44.5529 154.054 45.4609 154.023 46.3569 153.924L47.1039 155.581C47.8099 157.148 49.6519 157.846 51.2189 157.14L55.1709 155.359C56.7379 154.653 57.4359 152.811 56.7299 151.244L55.9829 149.587C56.6509 148.982 57.2759 148.322 57.8469 147.609L59.5439 148.252C61.1509 148.861 62.9469 148.051 63.5559 146.444L65.0909 142.39C65.6989 140.783 64.8899 138.986 63.2829 138.378ZM40.6179 147.082C34.9939 144.952 32.1619 138.666 34.2919 133.042C36.4219 127.418 42.7079 124.586 48.3319 126.716C53.9559 128.846 56.7879 135.132 54.6579 140.756C52.5279 146.379 46.2419 149.212 40.6179 147.082Z" fill="#C9B5A9"/>
<path d="M82.028 63.3259L73.917 80.5269L91.332 129.025L136.912 112.658L114.953 51.5039L82.028 63.3259Z" fill="#E9D0AF"/>
<path d="M86.573 75.9822L82.028 63.3262L73.917 80.5272L86.573 75.9822Z" fill="#F4E8D8"/>
<path d="M107.765 88.607C108.891 86.176 110.013 83.743 111.135 81.31C111.796 79.877 111.204 77.934 109.695 77.3C108.201 76.672 106.39 77.211 105.685 78.74C104.525 81.148 103.364 83.555 102.208 85.964C99.8003 84.828 97.3873 83.701 94.9603 82.602C93.5263 81.899 91.5353 82.557 90.9043 84.059C90.2563 85.601 90.8313 87.365 92.3613 88.115C94.7463 89.285 97.1443 90.427 99.5473 91.559C98.4143 93.96 97.2913 96.365 96.1963 98.784C95.4923 100.218 96.1513 102.209 97.6523 102.84C99.1943 103.488 100.958 102.913 101.708 101.384C102.881 98.993 104.025 96.59 105.16 94.183C107.583 95.306 110.009 96.424 112.435 97.543C113.868 98.204 115.811 97.612 116.445 96.103C117.073 94.608 116.534 92.798 115.005 92.093C112.591 90.929 110.179 89.766 107.765 88.607Z" fill="#C85F64"/>
<path d="M177.338 30.9434L162.155 37.1424L144.94 78.1104L183.444 94.2894L205.151 42.6304L177.338 30.9434Z" fill="#E9D0AF"/>
<path d="M172.846 41.6344L177.338 30.9434L162.155 37.1424L172.846 41.6344Z" fill="#F4E8D8"/>
<path d="M178.95 62.0131C181.083 61.1251 183.214 60.2341 185.346 59.3421C186.601 58.8171 187.359 57.2371 186.77 55.9541C186.187 54.6831 184.722 53.9701 183.382 54.5301C181.241 55.3831 179.1 56.2361 176.961 57.0921C176.093 54.9661 175.218 52.8431 174.317 50.7301C173.816 49.4471 172.167 48.7041 170.89 49.2901C169.579 49.8921 168.916 51.3481 169.45 52.7171C170.283 54.8511 171.141 56.9751 172.007 59.0951C169.887 59.9601 167.771 60.8331 165.664 61.7311C164.381 62.2321 163.638 63.8811 164.224 65.1571C164.826 66.4681 166.282 67.1311 167.65 66.5971C169.789 65.7621 171.917 64.9021 174.042 64.0341C174.927 66.1601 175.816 68.2851 176.704 70.4111C177.229 71.6661 178.809 72.4241 180.092 71.8351C181.363 71.2521 182.076 69.7871 181.516 68.4471C180.662 66.3021 179.808 64.1561 178.95 62.0131Z" fill="#C85F64"/>
<path d="M324.546 53.0346C324.393 52.417 324.469 51.8563 324.772 51.3526C325.07 50.825 325.528 50.4848 326.146 50.3319C327.12 50.0908 327.963 49.7307 328.677 49.2517C329.384 48.7488 329.881 48.109 330.168 47.3321C330.478 46.5494 330.498 45.6117 330.228 44.5191C330.028 43.7115 329.649 43.0488 329.093 42.5312C328.56 42.0077 327.905 41.6531 327.128 41.4673C326.374 41.2756 325.57 41.2856 324.715 41.4973C324.05 41.662 323.45 41.9366 322.915 42.3211C322.404 42.6998 321.96 43.1498 321.585 43.6712C321.287 44.0979 320.886 44.4619 320.381 44.7635C319.894 45.0354 319.327 45.037 318.68 44.7685C318.005 44.482 317.569 44.0478 317.375 43.4657C317.18 42.8836 317.271 42.2814 317.646 41.6591C318.284 40.5685 319.114 39.6446 320.136 38.8872C321.177 38.1003 322.35 37.5451 323.657 37.2217C325.296 36.8159 326.862 36.8314 328.357 37.2681C329.869 37.6752 331.173 38.4112 332.269 39.4761C333.365 40.5409 334.109 41.8691 334.503 43.4606C334.797 44.6483 334.881 45.7494 334.754 46.764C334.621 47.7549 334.304 48.6652 333.804 49.4949C333.321 50.295 332.691 51.0058 331.912 51.6272C331.151 52.2189 330.28 52.7244 329.3 53.1435C329.258 53.179 329.216 53.2145 329.175 53.25C329.157 53.2797 329.154 53.3182 329.166 53.3657L329.492 54.6841C329.645 55.3017 329.572 55.8742 329.274 56.4018C328.971 56.9055 328.51 57.2339 327.892 57.3868C327.275 57.5396 326.714 57.4642 326.21 57.1603C325.7 56.8327 325.369 56.3601 325.216 55.7425L324.546 53.0346ZM329.293 63.8087C328.604 63.9792 328.025 63.9334 327.557 63.6712C327.107 63.3793 326.796 62.889 326.626 62.2001L326.476 61.5944C326.305 60.9055 326.354 60.3388 326.622 59.8943C326.908 59.4202 327.396 59.0979 328.085 58.9273L328.548 58.8127C329.237 58.6421 329.806 58.7028 330.257 58.9947C330.725 59.2569 331.044 59.7324 331.215 60.4213L331.365 61.027C331.535 61.7158 331.478 62.2973 331.192 62.7715C330.923 63.216 330.445 63.5235 329.756 63.694L329.293 63.8087Z" fill="white"/>
<path d="M307.494 66.8564C307.126 66.4323 306.961 65.9614 306.999 65.4439C307.022 64.9101 307.245 64.4596 307.669 64.0923C308.338 63.5131 308.857 62.8925 309.226 62.2306C309.581 61.5523 309.715 60.8506 309.63 60.1254C309.561 59.3861 309.201 58.6412 308.551 57.8907C308.071 57.336 307.509 56.9666 306.864 56.7826C306.236 56.5844 305.579 56.5678 304.894 56.7328C304.225 56.8836 303.597 57.2133 303.01 57.7218C302.553 58.1174 302.191 58.5733 301.925 59.0896C301.674 59.5918 301.506 60.1228 301.42 60.6827C301.357 61.1371 301.187 61.5839 300.911 62.023C300.637 62.4316 300.192 62.6598 299.576 62.7073C298.931 62.7527 298.415 62.5856 298.029 62.206C297.643 61.8263 297.473 61.3169 297.519 60.6776C297.584 59.5655 297.866 58.5072 298.367 57.5028C298.87 56.468 299.57 55.5622 300.467 54.7852C301.593 53.8105 302.83 53.1957 304.18 52.9408C305.531 52.6555 306.851 52.7121 308.138 53.1106C309.425 53.5091 310.541 54.2549 311.488 55.3479C312.194 56.1637 312.701 56.9956 313.007 57.8438C313.299 58.6756 313.414 59.5177 313.353 60.3701C313.294 61.192 313.083 62.0029 312.719 62.803C312.358 63.5726 311.876 64.3182 311.273 65.0398C311.255 65.0844 311.236 65.1289 311.218 65.1735C311.215 65.2039 311.228 65.2355 311.257 65.2681L312.041 66.1736C312.408 66.5977 312.58 67.0767 312.557 67.6105C312.52 68.128 312.289 68.5704 311.865 68.9377C311.441 69.305 310.97 69.47 310.452 69.4328C309.921 69.3793 309.471 69.1405 309.104 68.7163L307.494 66.8564ZM315.536 73.4241C315.062 73.8338 314.589 74.0293 314.116 74.0106C313.646 73.9614 313.206 73.7003 312.796 73.2272L312.436 72.8112C312.026 72.338 311.838 71.8732 311.87 71.4166C311.905 70.9295 312.159 70.4812 312.633 70.0715L312.951 69.796C313.424 69.3864 313.896 69.2061 314.367 69.2552C314.839 69.2739 315.281 69.5198 315.69 69.993L316.051 70.409C316.46 70.8821 316.648 71.3622 316.613 71.8493C316.58 72.3059 316.327 72.739 315.854 73.1487L315.536 73.4241Z" fill="white"/>
<path d="M346.865 56.211C347.099 55.701 347.459 55.3557 347.945 55.1751C348.44 54.9749 348.943 54.9918 349.453 55.2256C350.257 55.5944 351.037 55.8095 351.792 55.8709C352.557 55.9127 353.251 55.7445 353.876 55.3661C354.52 54.9967 355.049 54.3609 355.463 53.4585C355.768 52.7916 355.872 52.1266 355.772 51.4637C355.692 50.8097 355.435 50.2052 355.001 49.6501C354.587 49.1041 354.026 48.6691 353.32 48.3453C352.771 48.0934 352.206 47.9532 351.626 47.9245C351.065 47.9048 350.512 47.9717 349.967 48.1253C349.527 48.256 349.05 48.2866 348.536 48.217C348.05 48.1368 347.659 47.8266 347.36 47.2862C347.051 46.7172 346.99 46.1786 347.175 45.6702C347.361 45.1618 347.754 44.796 348.355 44.573C349.394 44.171 350.474 43.9897 351.596 44.0291C352.746 44.0579 353.86 44.3197 354.939 44.8144C356.293 45.435 357.365 46.3065 358.156 47.4289C358.976 48.5407 359.471 49.7649 359.642 51.1014C359.812 52.4379 359.596 53.7633 358.994 55.0775C358.544 56.0584 357.996 56.8638 357.351 57.4939C356.715 58.1045 355.997 58.5584 355.196 58.8558C354.423 59.1426 353.598 59.2863 352.719 59.287C351.869 59.2771 350.991 59.1474 350.084 58.8979C350.036 58.8995 349.988 58.9012 349.939 58.9028C349.911 58.9134 349.887 58.9383 349.869 58.9776L349.37 60.0663C349.136 60.5763 348.772 60.9314 348.276 61.1316C347.79 61.3122 347.292 61.2855 346.782 61.0517C346.272 60.8178 345.926 60.4577 345.746 59.9713C345.574 59.4653 345.605 58.9573 345.839 58.4473L346.865 56.211ZM344.22 66.2512C343.651 65.9904 343.277 65.6409 343.098 65.2027C342.948 64.7539 343.003 64.2451 343.264 63.6762L343.493 63.176C343.754 62.6071 344.099 62.243 344.528 62.0837C344.986 61.9137 345.499 61.9592 346.068 62.22L346.451 62.3954C347.019 62.6563 347.379 63.0111 347.529 63.4599C347.708 63.898 347.667 64.4015 347.406 64.9704L347.177 65.4706C346.916 66.0395 346.557 66.4089 346.099 66.5789C345.67 66.7382 345.171 66.6874 344.602 66.4266L344.22 66.2512Z" fill="white"/>
</svg>
