<svg width="17" height="13" viewBox="0 0 17 13" fill="none" xmlns="http://www.w3.org/2000/svg">
<path d="M16.7344 0.500031L13.8312 2.93547L16.6083 7.09047L16.7344 6.95116V0.500031ZM0 0.535563V7.59472C0.1575 7.61291 0.346746 7.62294 0.537715 7.62472C0.955019 7.62862 1.29899 7.60441 1.49221 7.58897L3.34336 3.42537L0 0.535563ZM13.6812 3.81244L13.4337 3.95481C13.4284 3.95784 13.2452 4.05906 13.1914 4.08887L12.8185 4.2895L12.8238 4.29231C12.651 4.38784 12.603 4.41472 12.407 4.52294C12.3075 4.57784 12.305 4.57912 12.2106 4.63122C11.4973 4.29038 10.7233 4.02841 9.82009 3.82241C8.68412 4.12747 7.48072 4.56891 6.27908 4.98309C6.77795 5.51706 7.33236 5.69094 7.89082 5.69716C8.5384 5.70434 9.20039 5.45403 9.6563 5.17359L9.91645 5.01359L10.1775 5.34891L14.2364 7.95297L15.8224 7.01587L13.6812 3.81244ZM3.81364 3.89806L2.21871 7.48516L2.80406 7.88525L3.8867 6.79447L3.97343 6.70712L4.10421 6.69987C4.15695 6.69694 4.20898 6.69558 4.2603 6.69581C4.61932 6.69787 4.9403 6.78069 5.18105 6.96956C5.35936 7.10931 5.47791 7.29538 5.54667 7.51081L5.62683 7.50638C6.04853 7.48294 6.42846 7.56028 6.70366 7.77606C6.97883 7.99191 7.11253 8.31741 7.1389 8.69231L7.14136 8.72606C7.36777 8.76406 7.57044 8.84331 7.73525 8.97256C8.01046 9.18838 8.14412 9.51381 8.17049 9.88872L8.17741 9.98622C8.19988 9.99255 8.22215 9.9994 8.24421 10.0068L8.31568 9.91763L8.50799 9.67769L8.60688 9.55425L8.86458 9.71747L10.9538 11.0405C11.1811 10.9907 11.3166 10.9131 11.3919 10.819C11.4674 10.7249 11.5056 10.5856 11.4841 10.3782L8.97898 8.7835L8.7217 8.61975L8.90416 8.39331L9.13866 8.10066L9.39635 8.26388L12.2206 10.0522C12.4479 10.0024 12.5834 9.92487 12.6588 9.83078C12.7342 9.73672 12.7723 9.59775 12.7511 9.39072L9.5027 7.34228L9.24465 7.17947L9.61077 6.72072L9.86892 6.88347L13.1179 8.93237C13.3453 8.88256 13.4809 8.80503 13.5564 8.71087C13.6319 8.61666 13.67 8.47725 13.6485 8.26947L9.76581 5.77853C9.25059 6.05003 8.59152 6.26753 7.88295 6.25966C7.05371 6.25044 6.16672 5.89822 5.51422 5.00809C5.48841 4.97289 5.47181 4.933 5.46562 4.89135C5.45943 4.84969 5.46382 4.80734 5.47847 4.76739C5.49311 4.72744 5.51764 4.69092 5.55025 4.6605C5.58286 4.63008 5.62272 4.60655 5.66691 4.59163C6.12443 4.43709 6.5867 4.27381 7.05006 4.11181L3.81371 3.89825L3.81364 3.89806ZM4.26723 7.26119L2.59506 8.94588C2.62765 9.15669 2.70193 9.28781 2.80202 9.36631C2.90211 9.44481 3.05779 9.49397 3.29716 9.49644L4.9693 7.81181C4.93671 7.60097 4.86243 7.46978 4.76234 7.39128C4.66225 7.31278 4.50661 7.26366 4.2672 7.26122L4.26723 7.26119ZM5.78978 8.06775L3.90143 9.97025C3.93398 10.1811 4.0083 10.3123 4.10836 10.3908C4.20855 10.4692 4.36412 10.5184 4.60354 10.5208L6.49188 8.61834C6.45933 8.40747 6.38501 8.27634 6.28492 8.19781C6.18483 8.11928 6.02923 8.07016 5.78981 8.06769L5.78978 8.06775ZM6.82126 9.26419L5.14923 10.9489C5.18182 11.1597 5.25611 11.2908 5.3562 11.3694C5.45632 11.4479 5.61196 11.497 5.85134 11.4994L7.52344 9.81494C7.49085 9.604 7.41656 9.47284 7.31647 9.39431C7.21638 9.31581 7.06075 9.26672 6.82133 9.26425L6.82126 9.26419ZM7.68969 10.4872L6.32584 11.871C6.35836 12.0822 6.43264 12.2135 6.53284 12.2921C6.63286 12.3705 6.78832 12.4197 7.02738 12.4222L8.3913 11.0384C8.35875 10.8273 8.28443 10.6959 8.18423 10.6173C8.08425 10.5389 7.92879 10.4898 7.68973 10.4873L7.68969 10.4872ZM8.93218 10.6369C8.99174 10.7813 9.02616 10.9413 9.03814 11.1117L9.0463 11.2274L8.75531 11.5227L9.69483 12.1176C9.92208 12.0677 10.0575 11.9902 10.1329 11.8961C10.2083 11.8021 10.2465 11.6629 10.2253 11.4557L8.93222 10.637L8.93218 10.6369Z" fill="#AEAEAE"/>
</svg>
