<svg width="20" height="21" viewBox="0 0 20 21" fill="none" xmlns="http://www.w3.org/2000/svg">
<path d="M16.6665 5.10413H3.33317C2.4127 5.10413 1.6665 5.85032 1.6665 6.77079V13.4375C1.6665 14.3579 2.4127 15.1041 3.33317 15.1041H16.6665C17.587 15.1041 18.3332 14.3579 18.3332 13.4375V6.77079C18.3332 5.85032 17.587 5.10413 16.6665 5.10413Z" stroke="#525252" stroke-width="1.33" stroke-linecap="round" stroke-linejoin="round"/>
<path d="M10.0002 11.7708C10.9206 11.7708 11.6668 11.0246 11.6668 10.1041C11.6668 9.18363 10.9206 8.43744 10.0002 8.43744C9.07969 8.43744 8.3335 9.18363 8.3335 10.1041C8.3335 11.0246 9.07969 11.7708 10.0002 11.7708Z" stroke="#525252" stroke-width="1.33" stroke-linecap="round" stroke-linejoin="round"/>
<path d="M5 10.1041H5.00833M15 10.1041H15.0083" stroke="#525252" stroke-width="1.33" stroke-linecap="round" stroke-linejoin="round"/>
</svg>
