<svg width="24" height="24" viewBox="0 0 24 24" fill="none" xmlns="http://www.w3.org/2000/svg">
<path fill-rule="evenodd" clip-rule="evenodd" d="M5 1.25C4.27065 1.25 3.57118 1.53973 3.05546 2.05546C2.53973 2.57118 2.25 3.27065 2.25 4C2.25 4.72935 2.53973 5.42882 3.05546 5.94454C3.57118 6.46027 4.27065 6.75 5 6.75C5.72935 6.75 6.42882 6.46027 6.94454 5.94454C7.46027 5.42882 7.75 4.72935 7.75 4C7.75 3.27065 7.46027 2.57118 6.94454 2.05546C6.42882 1.53973 5.72935 1.25 5 1.25ZM3.75 4C3.75 3.66848 3.8817 3.35054 4.11612 3.11612C4.35054 2.8817 4.66848 2.75 5 2.75C5.33152 2.75 5.64946 2.8817 5.88388 3.11612C6.1183 3.35054 6.25 3.66848 6.25 4C6.25 4.33152 6.1183 4.64946 5.88388 4.88388C5.64946 5.1183 5.33152 5.25 5 5.25C4.66848 5.25 4.35054 5.1183 4.11612 4.88388C3.8817 4.64946 3.75 4.33152 3.75 4ZM2.25 8C2.25 7.80109 2.32902 7.61032 2.46967 7.46967C2.61032 7.32902 2.80109 7.25 3 7.25H7C7.19891 7.25 7.38968 7.32902 7.53033 7.46967C7.67098 7.61032 7.75 7.80109 7.75 8V21C7.75 21.1989 7.67098 21.3897 7.53033 21.5303C7.38968 21.671 7.19891 21.75 7 21.75H3C2.80109 21.75 2.61032 21.671 2.46967 21.5303C2.32902 21.3897 2.25 21.1989 2.25 21V8ZM3.75 8.75V20.25H6.25V8.75H3.75ZM9.25 8C9.25 7.80109 9.32902 7.61032 9.46967 7.46967C9.61032 7.32902 9.80109 7.25 10 7.25H14C14.1989 7.25 14.3897 7.32902 14.5303 7.46967C14.671 7.61032 14.75 7.80109 14.75 8V8.434L15.185 8.247C15.9351 7.9266 16.7307 7.72583 17.543 7.652C20.318 7.4 22.75 9.58 22.75 12.38V21C22.75 21.1989 22.671 21.3897 22.5303 21.5303C22.3897 21.671 22.1989 21.75 22 21.75H18C17.8011 21.75 17.6103 21.671 17.4697 21.5303C17.329 21.3897 17.25 21.1989 17.25 21V14C17.25 13.6685 17.1183 13.3505 16.8839 13.1161C16.6495 12.8817 16.3315 12.75 16 12.75C15.6685 12.75 15.3505 12.8817 15.1161 13.1161C14.8817 13.3505 14.75 13.6685 14.75 14V21C14.75 21.1989 14.671 21.3897 14.5303 21.5303C14.3897 21.671 14.1989 21.75 14 21.75H10C9.80109 21.75 9.61032 21.671 9.46967 21.5303C9.32902 21.3897 9.25 21.1989 9.25 21V8ZM10.75 8.75V20.25H13.25V14C13.25 13.2707 13.5397 12.5712 14.0555 12.0555C14.5712 11.5397 15.2707 11.25 16 11.25C16.7293 11.25 17.4288 11.5397 17.9445 12.0555C18.4603 12.5712 18.75 13.2707 18.75 14V20.25H21.25V12.38C21.25 10.476 19.589 8.972 17.68 9.146C17.0241 9.2055 16.3817 9.36747 15.776 9.626L14.296 10.261C14.1818 10.31 14.0573 10.3299 13.9336 10.3189C13.8098 10.3079 13.6907 10.2663 13.587 10.1979C13.4833 10.1295 13.3982 10.0364 13.3394 9.927C13.2806 9.81757 13.2499 9.69524 13.25 9.571V8.75H10.75Z" fill="black"/>
</svg>
