<svg width="20" height="21" viewBox="0 0 20 21" fill="none" xmlns="http://www.w3.org/2000/svg">
<path d="M15 6.77075C15 5.44467 14.4732 4.1729 13.5355 3.23522C12.5979 2.29754 11.3261 1.77075 10 1.77075C8.67392 1.77075 7.40215 2.29754 6.46447 3.23522C5.52678 4.1729 5 5.44467 5 6.77075C5 12.6041 2.5 14.2708 2.5 14.2708H17.5C17.5 14.2708 15 12.6041 15 6.77075Z" stroke="#525252" stroke-width="1.33" stroke-linecap="round" stroke-linejoin="round"/>
<path d="M11.4414 17.6041C11.2949 17.8567 11.0846 18.0663 10.8316 18.2121C10.5786 18.3578 10.2918 18.4345 9.99977 18.4345C9.70779 18.4345 9.42093 18.3578 9.16792 18.2121C8.9149 18.0663 8.70461 17.8567 8.55811 17.6041" stroke="#525252" stroke-width="1.33" stroke-linecap="round" stroke-linejoin="round"/>
</svg>
