<svg width="20" height="21" viewBox="0 0 20 21" fill="none" xmlns="http://www.w3.org/2000/svg">
<path d="M13.3332 17.6041V15.9375C13.3332 15.0534 12.982 14.2056 12.3569 13.5804C11.7317 12.9553 10.8839 12.6041 9.99984 12.6041H4.99984C4.11578 12.6041 3.26794 12.9553 2.64281 13.5804C2.01769 14.2056 1.6665 15.0534 1.6665 15.9375V17.6041" stroke="#525252" stroke-width="1.33" stroke-linecap="round" stroke-linejoin="round"/>
<path d="M7.49984 9.27079C9.34079 9.27079 10.8332 7.77841 10.8332 5.93746C10.8332 4.09651 9.34079 2.60413 7.49984 2.60413C5.65889 2.60413 4.1665 4.09651 4.1665 5.93746C4.1665 7.77841 5.65889 9.27079 7.49984 9.27079Z" stroke="#525252" stroke-width="1.33" stroke-linecap="round" stroke-linejoin="round"/>
<path d="M18.3335 17.6041V15.9374C18.3329 15.1988 18.0871 14.4814 17.6346 13.8977C17.1821 13.314 16.5486 12.897 15.8335 12.7124" stroke="#525252" stroke-linecap="round" stroke-linejoin="round"/>
<path d="M13.3335 2.7124C14.0505 2.89599 14.686 3.31299 15.1399 3.89766C15.5937 4.48234 15.84 5.20143 15.84 5.94157C15.84 6.68171 15.5937 7.4008 15.1399 7.98548C14.686 8.57015 14.0505 8.98715 13.3335 9.17074" stroke="#525252" stroke-linecap="round" stroke-linejoin="round"/>
</svg>
