<svg width="20" height="24" viewBox="0 0 20 24" fill="none" xmlns="http://www.w3.org/2000/svg">
<path d="M5.00002 9.84375V3.75C5.00002 3.55109 4.93417 3.36032 4.81696 3.21967C4.69975 3.07902 4.54078 3 4.37502 3C4.20926 3 4.05029 3.07902 3.93308 3.21967C3.81587 3.36032 3.75002 3.55109 3.75002 3.75V9.84375C3.21226 10.009 2.73562 10.3843 2.39524 10.9105C2.05487 11.4367 1.87012 12.0839 1.87012 12.75C1.87012 13.4161 2.05487 14.0633 2.39524 14.5895C2.73562 15.1157 3.21226 15.491 3.75002 15.6562V20.25C3.75002 20.4489 3.81587 20.6397 3.93308 20.7803C4.05029 20.921 4.20926 21 4.37502 21C4.54078 21 4.69975 20.921 4.81696 20.7803C4.93417 20.6397 5.00002 20.4489 5.00002 20.25V15.6562C5.53778 15.491 6.01442 15.1157 6.35479 14.5895C6.69517 14.0633 6.87992 13.4161 6.87992 12.75C6.87992 12.0839 6.69517 11.4367 6.35479 10.9105C6.01442 10.3843 5.53778 10.009 5.00002 9.84375ZM4.37502 14.25C4.12779 14.25 3.88612 14.162 3.68056 13.9972C3.475 13.8324 3.31478 13.5981 3.22017 13.324C3.12556 13.0499 3.10081 12.7483 3.14904 12.4574C3.19727 12.1664 3.31632 11.8991 3.49114 11.6893C3.66595 11.4796 3.88868 11.3367 4.13116 11.2788C4.37363 11.2209 4.62497 11.2506 4.85337 11.3642C5.08178 11.4777 5.277 11.67 5.41436 11.9166C5.55171 12.1633 5.62502 12.4533 5.62502 12.75C5.62502 13.1478 5.49332 13.5294 5.2589 13.8107C5.02448 14.092 4.70654 14.25 4.37502 14.25ZM10.625 5.34375V3.75C10.625 3.55109 10.5592 3.36032 10.442 3.21967C10.3248 3.07902 10.1658 3 10 3C9.83426 3 9.67529 3.07902 9.55808 3.21967C9.44087 3.36032 9.37502 3.55109 9.37502 3.75V5.34375C8.83726 5.50898 8.36062 5.88428 8.02024 6.41048C7.67987 6.93669 7.49512 7.58387 7.49512 8.25C7.49512 8.91613 7.67987 9.56331 8.02024 10.0895C8.36062 10.6157 8.83726 10.991 9.37502 11.1562V20.25C9.37502 20.4489 9.44087 20.6397 9.55808 20.7803C9.67529 20.921 9.83426 21 10 21C10.1658 21 10.3248 20.921 10.442 20.7803C10.5592 20.6397 10.625 20.4489 10.625 20.25V11.1562C11.1628 10.991 11.6394 10.6157 11.9798 10.0895C12.3202 9.56331 12.5049 8.91613 12.5049 8.25C12.5049 7.58387 12.3202 6.93669 11.9798 6.41048C11.6394 5.88428 11.1628 5.50898 10.625 5.34375ZM10 9.75C9.75279 9.75 9.51112 9.66203 9.30556 9.4972C9.1 9.33238 8.93978 9.09811 8.84517 8.82403C8.75056 8.54994 8.72581 8.24834 8.77404 7.95736C8.82227 7.66639 8.94132 7.39912 9.11614 7.18934C9.29095 6.97956 9.51368 6.8367 9.75616 6.77882C9.99863 6.72094 10.25 6.75065 10.4784 6.86418C10.7068 6.97771 10.902 7.16997 11.0394 7.41665C11.1767 7.66332 11.25 7.95333 11.25 8.25C11.25 8.64782 11.1183 9.02936 10.8839 9.31066C10.6495 9.59196 10.3315 9.75 10 9.75ZM18.125 15.75C18.1245 15.0849 17.9401 14.4388 17.6008 13.9129C17.2616 13.387 16.7865 13.011 16.25 12.8438V3.75C16.25 3.55109 16.1842 3.36032 16.067 3.21967C15.9498 3.07902 15.7908 3 15.625 3C15.4593 3 15.3003 3.07902 15.1831 3.21967C15.0659 3.36032 15 3.55109 15 3.75V12.8438C14.4623 13.009 13.9856 13.3843 13.6452 13.9105C13.3049 14.4367 13.1201 15.0839 13.1201 15.75C13.1201 16.4161 13.3049 17.0633 13.6452 17.5895C13.9856 18.1157 14.4623 18.491 15 18.6562V20.25C15 20.4489 15.0659 20.6397 15.1831 20.7803C15.3003 20.921 15.4593 21 15.625 21C15.7908 21 15.9498 20.921 16.067 20.7803C16.1842 20.6397 16.25 20.4489 16.25 20.25V18.6562C16.7865 18.489 17.2616 18.113 17.6008 17.5871C17.9401 17.0612 18.1245 16.4151 18.125 15.75ZM15.625 17.25C15.3778 17.25 15.1361 17.162 14.9306 16.9972C14.725 16.8324 14.5648 16.5981 14.4702 16.324C14.3756 16.0499 14.3508 15.7483 14.399 15.4574C14.4473 15.1664 14.5663 14.8991 14.7411 14.6893C14.916 14.4796 15.1387 14.3367 15.3812 14.2788C15.6236 14.2209 15.875 14.2506 16.1034 14.3642C16.3318 14.4777 16.527 14.67 16.6644 14.9166C16.8017 15.1633 16.875 15.4533 16.875 15.75C16.875 16.1478 16.7433 16.5294 16.5089 16.8107C16.2745 17.092 15.9565 17.25 15.625 17.25Z" fill="#98A2B3"/>
</svg>
