<svg width="17" height="11" viewBox="0 0 17 11" fill="none" xmlns="http://www.w3.org/2000/svg">
<path d="M0.5 0V1H10V8.5H6.922C6.699 7.6405 5.926 7 5 7C4.074 7 3.301 7.6405 3.078 8.5H2.5V6H1.5V9.5H3.078C3.301 10.3595 4.074 11 5 11C5.926 11 6.699 10.3595 6.922 9.5H11.078C11.301 10.3595 12.074 11 13 11C13.926 11 14.699 10.3595 14.922 9.5H16.5V5.422L16.4685 5.3435L15.4685 2.3435L15.36 2H11V0H0.5ZM1 2V3H5.5V2H1ZM11 3H14.6405L15.5 5.5625V8.5H14.922C14.699 7.6405 13.926 7 13 7C12.074 7 11.301 7.6405 11.078 8.5H11V3ZM1.5 4V5H4.5V4H1.5ZM5 8C5.5585 8 6 8.4415 6 9C6 9.5585 5.5585 10 5 10C4.4415 10 4 9.5585 4 9C4 8.4415 4.4415 8 5 8ZM13 8C13.5585 8 14 8.4415 14 9C14 9.5585 13.5585 10 13 10C12.4415 10 12 9.5585 12 9C12 8.4415 12.4415 8 13 8Z" fill="#525252" fill-opacity="0.65"/>
</svg>
