<svg width="20" height="21" viewBox="0 0 20 21" fill="none" xmlns="http://www.w3.org/2000/svg">
<path d="M16.6668 10.1041V6.77077H5.00016C4.55814 6.77077 4.13421 6.59518 3.82165 6.28262C3.50909 5.97006 3.3335 5.54613 3.3335 5.10411C3.3335 4.18744 4.0835 3.43744 5.00016 3.43744H15.0002V6.77077" stroke="#525252" stroke-width="1.33" stroke-linecap="round" stroke-linejoin="round"/>
<path d="M3.3335 5.10413V15.1041C3.3335 16.0208 4.0835 16.7708 5.00016 16.7708H16.6668V13.4375" stroke="#525252" stroke-width="1.33" stroke-linecap="round" stroke-linejoin="round"/>
<path d="M15.0002 10.1041C14.5581 10.1041 14.1342 10.2797 13.8217 10.5923C13.5091 10.9048 13.3335 11.3288 13.3335 11.7708C13.3335 12.6875 14.0835 13.4375 15.0002 13.4375H18.3335V10.1041H15.0002Z" stroke="#525252" stroke-width="1.33" stroke-linecap="round" stroke-linejoin="round"/>
</svg>
